<?xml version="1.0" encoding="UTF-8"?>
<!-- Created with Inkscape (http://www.inkscape.org/) -->
<svg width="121.15mm" height="118.52mm" version="1.1" viewBox="0 0 121.15475 118.52274" xmlns="http://www.w3.org/2000/svg" xmlns:cc="http://creativecommons.org/ns#" xmlns:dc="http://purl.org/dc/elements/1.1/" xmlns:rdf="http://www.w3.org/1999/02/22-rdf-syntax-ns#">
 <metadata>
  <rdf:RDF>
   <cc:Work rdf:about="">
    <dc:format>image/svg+xml</dc:format>
    <dc:type rdf:resource="http://purl.org/dc/dcmitype/StillImage"/>
    <dc:title/>
   </cc:Work>
  </rdf:RDF>
 </metadata>
 <g transform="translate(-15.018 -16.245)">
  <g transform="matrix(.065149 0 0 -.065149 -926.46 224.01)">
   <path d="m15381 3178.2c507.6 0 919-402.4 919-898.8s-411.4-898.8-919-898.8c-507.5 0-919 402.4-919 898.8s411.5 898.8 919 898.8zm8.7-410.22c281.8 0 510.2-223.37 510.2-498.92s-228.4-498.93-510.2-498.93c-281.7 0-510.1 223.38-510.1 498.93s228.4 498.92 510.1 498.92z" fill="none" stroke="#000917" stroke-linecap="round" stroke-miterlimit="2.6131" stroke-width="21.66"/>
  </g>
  <g transform="matrix(.065149 0 0 -.065149 -926.46 224.01)">
   <path d="m15381 3178.2c507.6 0 919-402.4 919-898.8s-411.4-898.8-919-898.8c-507.5 0-919 402.4-919 898.8s411.5 898.8 919 898.8zm8.7-410.22c281.8 0 510.2-223.37 510.2-498.92s-228.4-498.93-510.2-498.93c-281.7 0-510.1 223.38-510.1 498.93s228.4 498.92 510.1 498.92" fill="#2da9e4" fill-rule="evenodd"/>
  </g>
  <g transform="matrix(.064724 0 0 -.064724 -926.46 224.01)">
   <path d="m15474 3097.7c456.2 0 826-361.69 826-807.86s-369.8-807.87-826-807.87-826 361.7-826 807.87 369.8 807.86 826 807.86zm4.7-128.74c386.9 0 700.5-306.75 700.5-685.15s-313.6-685.16-700.5-685.16-700.5 306.76-700.5 685.16 313.6 685.15 700.5 685.15" fill="#000917" fill-rule="evenodd"/>
  </g>
  <g transform="matrix(.063852 0 0 -.063852 -926.46 224.01)">
   <path d="m15705 2900.9c164 0 312.7-65.15 420.3-170.49 108.1-105.71 175-251.7 175-412.87 0-161.18-66.9-307.16-175-412.88-107.6-105.33-256.3-170.48-420.3-170.48-164.1 0-312.7 65.15-420.4 170.48-108.1 105.72-175 251.7-175 412.88s66.9 307.16 175 412.87c107.7 105.34 256.3 170.49 420.4 170.49zm352-240.71c-90 88.02-214.4 142.46-352 142.46-137.7 0-262.1-54.44-352.1-142.46-89.6-87.63-145.1-208.78-145.1-342.65 0-133.88 55.5-255.02 145.1-342.65 90-88.02 214.4-142.47 352.1-142.47 137.6 0 262 54.45 352 142.47 89.6 87.63 145.1 208.78 145.1 342.65s-55.5 255.02-145.1 342.65z" fill="none" stroke="#2da9e4" stroke-miterlimit="2.6131" stroke-width="44.199"/>
  </g>
  <g transform="matrix(.063852 0 0 -.063852 -926.46 224.01)">
   <path d="m15705 2900.9c164 0 312.7-65.15 420.3-170.49 108.1-105.71 175-251.7 175-412.87 0-161.18-66.9-307.16-175-412.88-107.6-105.33-256.3-170.48-420.3-170.48-164.1 0-312.7 65.15-420.4 170.48-108.1 105.72-175 251.7-175 412.88s66.9 307.16 175 412.87c107.7 105.34 256.3 170.49 420.4 170.49zm352-240.71c-90 88.02-214.4 142.46-352 142.46-137.7 0-262.1-54.44-352.1-142.46-89.6-87.63-145.1-208.78-145.1-342.65 0-133.88 55.5-255.02 145.1-342.65 90-88.02 214.4-142.47 352.1-142.47 137.6 0 262 54.45 352 142.47 89.6 87.63 145.1 208.78 145.1 342.65s-55.5 255.02-145.1 342.65" fill="#000917"/>
  </g>
  <g transform="matrix(.059464 0 0 -.059464 -926.46 224.01)">
   <path d="m16288 3184.4 11.2 8.3 0.2-155.02c0-1.75-0.8-3.32-2.1-4.36l0.1-0.02c-0.7-0.57-239.6-196.74-239.6-548.23 0-351.46 239.4-544.02 240.1-544.58 1.4-1.16 2.1-2.85 2.1-4.53l-0.2-144.46-11.5 8.59 0.3 133.34c-23.5 19.86-242.2 213.49-242.2 551.64 0 338.34 218.3 535.24 241.6 555.26v144.07" fill="#f4e516"/>
  </g>
  <g transform="matrix(.064372 0 0 -.064372 -926.46 224.01)">
   <path d="m16066 2945.5 10.5-8.11 0.2-131.85c21.5-18.5 223.2-200.39 223.2-512.93 0-312.37-202-491.23-223.7-509.59l0.1-116.36-10.4-7.63-0.2 126.33c0 1.56 0.6 3.12 1.9 4.19 0.6 0.52 221.7 178.4 221.7 503.06 0 324.69-220.6 505.91-221.2 506.44v0.01c-1.1 0.96-1.9 2.41-1.9 4.03l-0.2 142.41" fill="#f4e516"/>
  </g>
  <g transform="matrix(.059569 0 0 -.059569 -926.46 224.01)">
   <path d="m16289 1946.7 11.4-10.63-1.2-167.57-11.3 7.62 1.1 170.58" fill="#f4e516"/>
  </g>
  <g transform="matrix(.063387 0 0 -.063387 -926.46 224.01)">
   <path d="m16288 1815.9 10.8 9.75 0.9-152.91-10.6-6.8-1.1 149.96" fill="#f4e516"/>
  </g>
  <g transform="matrix(.059568 0 0 -.059568 -926.46 224.01)">
   <path d="m16289 3200.3 11.2 7.67-1.1-195.28c-0.1-3.13-2.6-5.67-5.7-5.65-3.2 0.01-5.7 2.56-5.7 5.7l1.3 187.56" fill="#f4e516"/>
  </g>
  <g transform="matrix(.063388 0 0 -.063388 -926.46 224.01)">
   <path d="m16288 3011 10.5-7.59 1.3-166.67-10.8 9.8-1 164.46" fill="#f4e516"/>
  </g>
  <g transform="matrix(.06317 0 0 -.06317 -926.46 224.01)">
   <path d="m16273 2741.1c15.1 0 27.4-12.26 27.4-27.39 0-15.12-12.3-27.38-27.4-27.38s-27.4 12.26-27.4 27.38c0 15.13 12.3 27.39 27.4 27.39" fill="#f4e516" fill-rule="evenodd"/>
  </g>
  <g transform="matrix(.062924 0 0 -.062924 -926.46 224.01)">
   <path d="m16272 1950.2c15.2 0 27.5-12.31 27.5-27.49 0-15.19-12.3-27.5-27.5-27.5s-27.5 12.31-27.5 27.5c0 15.18 12.3 27.49 27.5 27.49" fill="#f4e516" fill-rule="evenodd"/>
  </g>
  <g transform="matrix(.060068 0 0 -.060068 -926.46 224.01)">
   <path d="m16271 2101.3c15.9 0 28.8-12.89 28.8-28.8 0-15.9-12.9-28.79-28.8-28.79s-28.8 12.89-28.8 28.79c0 15.91 12.9 28.8 28.8 28.8" fill="#f4e516" fill-rule="evenodd"/>
  </g>
  <g transform="matrix(.063115 0 0 -.063115 -926.46 224.01)">
   <path d="m15389 2593.1 14.8-0.78c-10 1.15-14.8 0.78-14.8 0.78zm889.1-327.01c0 0.05 0 0.15-0.1 0.22 0.1-0.23 0.1-0.32 0.1-0.22zm-1-78.03c-22.6 42.08-58 90.86-58 90.86l56-32.86-10.8 24.15 6.7-6.17-9.8 17.45s15.8-12.92 16.8-15.18c-0.9 3.45-8.1 39.31-8.1 39.31l-20.5 18.47 16.9-5.14-7.2 29.27 5.2 0.52-0.5 19.51-72.4 26.17 79.6 0.52-19.6 12.32 24.7 7.17-30.3 39.55 5.1 2.04-11.8 43.13-21-1.03-14.9 28.23-53.9-9.74 61.1 30.28-13.4 23.62-8.7 3.58 2.6 4.62-9.8 21.06-28.7-11.29 8.7 9.74-27.2-10.26 6.2 6.16-21.1-8.73 56 40.55-14.9 28.75-13.9-5.64 6.7 9.23-9.2 18.49-23.7-12.83 17.5 15.9-14.4 21.57-6.1-3.08 2 6.67-7.7 7.19-14.4-10.26 7.7 20.01-7.2 8.21-11.3-3.07 7.7 8.72-22 18.49-6.2-2.57 1.6 15.39-22.6-18.47 17.9 21.56-22 11.29-5.7-2.57 2.6 5.66-15.9 15.39-44.2-41.07 34.9 47.22-15.9-13.85 20 33.38-22 10.26-10.3-2.07 1.5 5.14-27.2 11.81-27.7-41.08 9.2 24.13-23.6-39 22.1 48.78-16.4-27.22 19 43.12-19 14.88-4.6-4.1-0.6 5.64-60 18.99-11.3-83.15 3.1 44.14-12.4-64.16-2 38.49h-13.4l-4.6-27.2-11.3 112.94-11.3-6.16-5.6 2.06-3.6-6.17-4.6 7.7-20.5-5.14-8.8 7.19-2.5-16.42 14.3-61.09-23.1 66.73-2-2.57-4.1 5.14s-2.1-5.66-4.1-5.66c-2.1 0-12.9 15.92-12.9 15.92l-26.7-12.31 4.6-12.33-15.4-13.86 13.9-38.49-19 34.39 8.2-24.13-18.4 29.26-2.1-4.11-16.4 26.7-15.9-9.23 30.8-51.34-39.6 47.22-25.6-1.02 14.3-32.86-21.5 33.38-52.9-6.69 20-23.1-6.1 3.09 22.6-28.77h-4.2l7.8-16.4s-9.3 10.26-18 21.04-27.8 26.7-27.8 26.7l-7.1 1.54-30.8-8.23-8.8-7.18-8.2 3.59-2-31.82s2-0.52 12.3-8.73 34.9-32.86 34.9-32.86l-29.8 20.53 8.2-10.26s-14.8 12.31-32.8 24.65c-18 12.31-59.6 30.28-59.6 30.28l-34.9-14.89 29.8-18.48 24.1-18.99-63.1 33.37-37.5-15.92-23.6-13.33 5.6-3.6-19.5-9.25s5.2 0 45.2-14.37c40.1-14.38 63.1-28.23 63.1-28.23s-7.1 3.59-33.3 12.83c-26.2 9.23-66.2 15.92-66.2 15.92l-9.8-16.43 25.2-8.22c24.2-7.9 55.5-24.82 57.8-26.09-1.2 0.67-10.4 5.54-27.5 11.73-18.5 6.67-48.8 12.83-48.8 12.83l1-15.4 5.7-5.66-3.1-2.05 5.6-5.64h-17.9l-2.1-18.49 49.8-12.32 1.5-5.65-64.6 4.12 3.1-8.21-6.2-1.04-13.9-16.43 8.2-1.53-13.8-7.7s16.9 5.14 80.1-1.03c63.1-6.16 120.6-29.77 120.6-29.77l-54.9 6.15 11.8-4.1-40.6 1.53s21.1-5.12 82.2-25.15c61-20.02 110.3-47.22 110.3-47.22s-17.9 8.21-53.4 23.62c-35.4 15.4-68.8 23.09-68.8 23.09l6.2-5.64-34.5 1.79c18.8-2.15 56-9.65 114.1-35.16 76.5-33.62 109.6-59.6 117.2-66.15-1.4-0.85-2.9-1.68-4.5-2.48-20.5-10.26-37.6-12.31-37.6-12.31l8.2-15.06s12.3 2.05 26.7-2.05c14.4-4.11 19.2-10.95 19.2-10.95l-11.7-10.26s5.5-4.12 8.2-13.7c2.8-9.59 2.1-15.07 2.1-15.07s-32.9-26.68-52.7-70.49c-19.9-43.8-24.6-66.39-24.6-66.39s-19.2-40.39-41.1-70.5-40.4-49.28-40.4-49.28 19.9-32.17 39.7-49.27c13.2-11.39 28.2-20.36 36.8-25.07-0.5-15.51-1.3-76.44 15.2-146.07 19.2-80.74 57.5-153.3 57.5-153.3s19.2 10.94 40.4 37.63c18.4 23.18 72.5 112.41 86.4 135.51 4.2-9.28 8.7-18.63 13.5-28.03 77.4-149.91 169.8-223.14 169.8-223.14s35.6 52.02 58.8 131.41c23.3 79.4 32.9 149.89 32.9 149.89s43.1 45.19 103.4 62.29c16.1 4.61 29.6 7.07 40.6 8.21-1.2-12.65-3.3-18.99-3.3-18.99l7.7-1.53 18.4 1.53 6.7 10.78 4.1-12.83 34.9 4.11 2.1 6.15 6.6-7.69s3.1 6.16 2.6 25.15c-0.5 19 6.2 42.61 6.2 42.61l9.2-13.86-3.6 41.58h3.6l-1 17.46 11.3-8.22 9.7 7.7s2.6-0.52-20 41.58zm-109.8-80.08c-33.6 2.73-51.4 17.12-58.9 27.38s-6.8 21.21-6.8 21.21l25.3-11.63s9.9 33.59 5.7 86.6c10.1-11.5 24.1-34.08 36.7-77.87 4.9-17.05 8.2-32.25 10.2-45.68-3.8-0.32-7.9-0.36-12.2-0.01" fill="#2d3335"/>
  </g>
  <g transform="matrix(.062191 0 0 -.062191 -926.46 224.01)">
   <path d="m16062 2574.1s29.9-9.72 81.3-40.98c51.4-31.27 74.3-55.57 74.3-55.57s-15.2-72.25 11.1-128.5c26.4-56.27 70.2-82.67 70.2-82.67s0.7-83.35-37.5-272.99c-38.2-189.63-66.7-235.48-66.7-235.48s-151.4 171.59-184.8 282.03c-33.3 110.43-40.9 197.97-40.9 197.97s127.1 56.95 141.7 130.59c14.6 73.62-13.2 121.55-13.2 121.55s-114.1-51.37-184.8-117.39c-93.8-87.52-68.1-185.47-68.1-185.47l-59-58.35s-13.9 6.96-29.9 27.8c-16 20.83-20.8 31.24-20.8 31.24s31.9 39.6 39.6 52.11c7.6 12.49 30.5 47.92 30.5 47.92s-21.5-52.79-31.2-69.45c-9.7-16.67-16-22.23-16-22.23s10.4-18.07 18.1-28.48c7.6-10.41 13.1-16.67 13.1-16.67l41 33.33s-21.5 86.83 67.4 179.22c88.9 92.38 210.5 161.84 210.5 161.84l-65.3 26.4s-60.1-44.8-123-107.67c-52.8-52.77-63.9-75-63.9-75s11.8 38.2 52.1 81.27c40.3 43.06 78.5 71.53 78.5 71.53s-36.1-22.23-60.4-44.45c-24.3-22.23-34.7-37.51-34.7-37.51s4.1 15.28 4.1 25.01v17.36s44.5 37.51 85.5 60.43c40.9 22.92 81.2 31.26 81.2 31.26" fill="#f4e516"/>
  </g>
  <g transform="matrix(.062191 0 0 -.062191 -926.46 224.01)">
   <path d="m16062 2574.1s29.9-9.72 81.3-40.98c51.4-31.27 74.3-55.57 74.3-55.57s-15.2-72.25 11.1-128.5c26.4-56.27 70.2-82.67 70.2-82.67s0.7-83.35-37.5-272.99c-38.2-189.63-66.7-235.48-66.7-235.48s-151.4 171.59-184.8 282.03c-33.3 110.43-40.9 197.97-40.9 197.97s127.1 56.95 141.7 130.59c14.6 73.62-13.2 121.55-13.2 121.55s-114.1-51.37-184.8-117.39c-93.8-87.52-68.1-185.47-68.1-185.47l-59-58.35s-13.9 6.96-29.9 27.8c-16 20.83-20.8 31.24-20.8 31.24s31.9 39.6 39.6 52.11c7.6 12.49 30.5 47.92 30.5 47.92s-21.5-52.79-31.2-69.45c-9.7-16.67-16-22.23-16-22.23s10.4-18.07 18.1-28.48c7.6-10.41 13.1-16.67 13.1-16.67l41 33.33s-21.5 86.83 67.4 179.22c88.9 92.38 210.5 161.84 210.5 161.84l-65.3 26.4s-60.1-44.8-123-107.67c-52.8-52.77-63.9-75-63.9-75s11.8 38.2 52.1 81.27c40.3 43.06 78.5 71.53 78.5 71.53s-36.1-22.23-60.4-44.45c-24.3-22.23-34.7-37.51-34.7-37.51s4.1 15.28 4.1 25.01v17.36s44.5 37.51 85.5 60.43c40.9 22.92 81.2 31.26 81.2 31.26z" fill="none" stroke="#2d3335" stroke-miterlimit="2.6131" stroke-width="11.346"/>
  </g>
  <g transform="matrix(.062841 0 0 -.062841 -926.46 224.01)">
   <path d="m16114 2030.5-2.8-16.49s37.8 35.74 93.5 48.11c55.7 12.38 82.5 6.2 82.5 6.2l12.4 27.49s-50.9-1.37-102.4-19.94c-51.6-18.56-83.2-45.37-83.2-45.37z" fill="none" stroke="#2d3335" stroke-linecap="round" stroke-linejoin="round" stroke-miterlimit="2.6131" stroke-width="11.228"/>
  </g>
  <g transform="matrix(.062841 0 0 -.062841 -926.46 224.01)">
   <path d="m16114 2030.5-2.8-16.49s37.8 35.74 93.5 48.11c55.7 12.38 82.5 6.2 82.5 6.2l12.4 27.49s-50.9-1.37-102.4-19.94c-51.6-18.56-83.2-45.37-83.2-45.37" fill="#f4e516"/>
  </g>
  <g transform="matrix(.062517 0 0 -.062517 -926.46 224.01)">
   <path d="m15821 2533.7s9-8.96 15.2-15.88c6.3-6.92 8.3-11.75 8.3-11.75s35.3 24.87 67.7 40.09c32.5 15.18 68.5 24.18 68.5 24.18s47.6-15.22 91.8-44.91c44.3-29.72 76.1-62.89 76.1-62.89l0.7-38.69s58.7-33.18 84.3-108.49c25.5-75.33 12.4-118.86 12.4-118.86s9 0.69 16.6-2.76 12.4-6.91 12.4-6.91 24.9 129.91-71.1 257.04c-96.1 127.16-206.7 175.52-206.7 175.52z" fill="none" stroke="#2d3335" stroke-linecap="round" stroke-linejoin="round" stroke-miterlimit="2.6131" stroke-width="11.286"/>
  </g>
  <g transform="matrix(.062517 0 0 -.062517 -926.46 224.01)">
   <path d="m15821 2533.7s9-8.96 15.2-15.88c6.3-6.92 8.3-11.75 8.3-11.75s35.3 24.87 67.7 40.09c32.5 15.18 68.5 24.18 68.5 24.18s47.6-15.22 91.8-44.91c44.3-29.72 76.1-62.89 76.1-62.89l0.7-38.69s58.7-33.18 84.3-108.49c25.5-75.33 12.4-118.86 12.4-118.86s9 0.69 16.6-2.76 12.4-6.91 12.4-6.91 24.9 129.91-71.1 257.04c-96.1 127.16-206.7 175.52-206.7 175.52l-176.2-85.69" fill="#f4e516"/>
  </g>
  <g transform="matrix(.062016 0 0 -.062016 -926.46 224.01)">
   <path d="m16182 2508.9s34.8-99.6 13.9-183.9c-20.9-84.28-134.4-158.11-134.4-158.11s12.5-86.39 56.4-172.77c43.9-86.36 96.8-128.17 96.8-128.17s46.7 107.29 66.2 244.5c19.5 137.24 18.8 169.28 18.8 169.28s-41.8 38.3-59.9 104.48c-18.1 66.17-15.3 98.92-15.3 98.92l-42.5 25.77" fill="#2d3335"/>
  </g>
  <g transform="matrix(.062016 0 0 -.062016 -926.46 224.01)">
   <path d="m16182 2508.9s34.8-99.6 13.9-183.9c-20.9-84.28-134.4-158.11-134.4-158.11s12.5-86.39 56.4-172.77c43.9-86.36 96.8-128.17 96.8-128.17s46.7 107.29 66.2 244.5c19.5 137.24 18.8 169.28 18.8 169.28s-41.8 38.3-59.9 104.48c-18.1 66.17-15.3 98.92-15.3 98.92z" fill="none" stroke="#2d3335" stroke-miterlimit="2.6131" stroke-width="1.9608"/>
  </g>
  <g transform="matrix(.061977 0 0 -.061977 -926.46 224.01)">
   <path d="m16207 2496.6 1.4-18.82 12.5-6.27s3.5-72.49 25.1-120.58c21.6-48.1 45.3-73.19 45.3-73.19s2.1-71.8-20.2-186.11c-22.3-114.32-55-198.65-55-198.65l6.2-9.77s50.2 135.22 63.4 243.27c13.3 108.04 14.7 152.65 14.7 152.65s-39.7 48.8-57.9 106.64c-18.1 57.86-13.9 96.2-13.9 96.2l-21.6 14.63" fill="#f4e516"/>
  </g>
  <g transform="matrix(.061977 0 0 -.061977 -926.46 224.01)">
   <path d="m16207 2496.6 1.4-18.82 12.5-6.27s3.5-72.49 25.1-120.58c21.6-48.1 45.3-73.19 45.3-73.19s2.1-71.8-20.2-186.11c-22.3-114.32-55-198.65-55-198.65l6.2-9.77s50.2 135.22 63.4 243.27c13.3 108.04 14.7 152.65 14.7 152.65s-39.7 48.8-57.9 106.64c-18.1 57.86-13.9 96.2-13.9 96.2z" fill="none" stroke="#2d3335" stroke-miterlimit="2.6131" stroke-width="1.962"/>
  </g>
  <g transform="matrix(.060567 0 0 -.060567 -926.46 224.01)">
   <path d="m15954 2904.9s97-37.09 169-77.74c72-40.66 118.4-87.02 118.4-87.02s-54.2 41.38-84.8 58.49c-30.7 17.11-50 26.4-50 26.4s82-49.22 120.5-83.47c38.6-34.24 71.4-71.32 71.4-71.32s-32.1 32.81-71.4 60.63c-39.2 27.82-59.9 34.24-59.9 34.24s57.8-39.95 92.7-69.91c35-29.95 40-37.8 40-37.8s-29.2 20.69-27.1 19.27c2.1-1.43 25.7-22.12 25.7-22.12l-19.3 10.7 12.1-14.97s-36.3 29.23-71.3 54.19c-34.9 24.96-66.3 36.38-66.3 36.38s44.9-26.38 77-49.92c32.1-23.55 54.9-47.8 54.9-47.8l-9.9 4.29 4.9-9.28s-13.5 9.28-50.6 34.24c-37.1 24.97-64.2 32.09-64.2 32.09s32.1-16.4 57.8-34.23c25.7-17.82 44.2-32.1 44.2-32.1l-24.2 14.99 19.2-19.98s-51.3 35.67-100.6 57.78c-49.2 22.1-90.5 32.1-90.5 32.1s43.5-2.85 59.2-7.85 22.1-7.86 22.1-7.86-55 32.11-122.7 48.51c-67.8 16.4-117.7 17.11-117.7 17.11l5.7 11.42 37.8-2.13-30 7.13 3.6 3.56s37.1-2.14 76.3-10.69c39.3-8.58 53.5-15.69 53.5-15.69s-29.9 14.98-47 19.25c-17.2 4.28-26.4 6.42-26.4 6.42l-5.7 7.13s18.5-1.42 37-7.84c18.6-6.42 32.9-10.7 32.9-10.7s-32.9 16.41-60.6 22.83c-27.9 6.41-55.7 9.98-55.7 9.98l1.4 14.27 69.2-20.69-46.3 19.97 3.5 4.27 18.6-4.27-37.1 17.12v9.98s45.6-14.98 105.5-37.8c60-22.83 70.6-33.52 70.6-33.52s-39.2 29.25-101.2 57.05c-62.1 27.82-74.2 31.4-74.2 31.4l5 9.98s55.6-9.98 95.6-30.67c39.9-20.69 52-29.96 52-29.96s-12.8 19.98-49.2 38.52c-36.4 18.53-93.4 45.64-93.4 45.64" fill="#2da9e4"/>
  </g>
  <g transform="matrix(.059888 0 0 -.059888 -926.46 224.01)">
   <path d="m16141 2947.2s40.4-15.88 89.4-38.96c49.1-23.09 70-34.62 70-34.62s-43.3 30.3-91.6 51.94-67.8 21.64-67.8 21.64" fill="#2da9e4"/>
  </g>
  <g transform="matrix(.063026 0 0 -.063026 -926.46 224.01)">
   <path d="m15359 2811.4s130.9-60.3 191.9-106.23c61-45.92 156.3-152.85 156.3-152.85s-13 25.36-34.9 50.71c-22 25.37-25.4 30.86-25.4 30.86s39.1-37.7 48.6-50.73c9.7-13.01 19.3-23.3 19.3-23.3l-21.3 43.17 31.5-39.75-2 15.77 6.8-5.48 0.7 6.16 13.7-16.45-43.2 76.78s43.2-67.17 49.4-69.22c6.2-2.06 8.2 2.05 8.2 2.05l-24.7 41.13s32.3-38.39 34.3-38.39c2.1 0 6.9 6.85 6.9 6.85s-10.3 30.86-33.6 63.06c-23.3 32.21-30.9 42.5-30.9 42.5s44.6-47.98 54.9-68.55 20.5-38.38 20.5-35.64c0 2.75-0.7 16.44-0.7 16.44l6.2-8.2s-7.5 26.03-27.4 58.24c-19.9 32.22-26.7 44.57-26.7 44.57s32.2-35.65 44.5-62.38c12.4-26.74 21.3-45.92 21.3-45.92s0.7 19.18-6.2 42.48c-6.8 23.32-8.9 36.33-8.9 36.33l21.9-63.75-2 43.88 11.6-44.56 4.1 4.8 4.8-6.17s8.3 4.8 5.5 35.66c-2.7 30.84-8.2 58.26-8.2 58.26s9.6-41.82 13-61.01c3.4-19.18 5.5-24.69 5.5-24.69l2.7 15.08 4.8-5.47-8.2 80.88 14.4-73.34 3.4 10.97 2.8-14.41 10.9 32.23-2-21.25 9.6 10.27s-4.8-27.4-2.8-25.35c2.1 2.05 46 98.02 46 98.02l-35-98.7 41.1 49.35-7.5-17.15 21.9 27.42-36.3-61.68 12.3 12.33-8.9-17.13 65.8 67.17-55.5-74.72 9.6-3.43-0.7-6.15 9.6 3.42 35 29.47-32.2-39.74 10.2 2.73-5.4-8.92 9.5 2.06-3.4-6.85 82.3 70.6-72.7-74.02s3.4-6.17 7.6-4.8c4.1 1.36-0.7-8.92 4.8-8.92 5.4 0 63.7 56.22 63.7 56.22s-54.1-58.96-49.3-58.96c4.7 0 8.9 4.12 8.9 4.12s-11.7-11.64-6.9-11.64 8.9 3.41 8.9 3.41l-6.2-10.97 60.4 54.16-54.2-56.21 20.6 13.71s-21.3-21.25-16.5-19.2 11.7 6.86 11.7 6.86l1.4-3.44 89.1 69.92s-100.8-85.66-91.9-84.98 38.4 20.55 38.4 20.55l-32.2-23.3 65.1 31.54s-65.8-36.35-61.7-39.08c4.1-2.74 11-1.37 11-1.37l82.9 41.13-84.3-51.4 14.4 1.36s-19.2-13.02-7.6-13.71c11.7-0.68 56.3 20.57 56.3 20.57l-49.4-30.86s7.5-12.32 12.4-12.32c4.7 0 40.4 9.59 40.4 9.59s-39.8-15.77-35.7-17.82c4.1-2.06 9.6-2.06 9.6-2.06s-8.2-6.18-3.4-7.54c4.8-1.37 7.6-8.23 7.6-8.23l60.3 17.15-55.6-22.63 94 8.24s-91.2-15.78-87.8-16.47c3.4-0.68 64.4-0.68 61-0.68s-68.5-2.74-51.4-4.79c17.1-2.07 56.9 0.69 56.9 0.69l-52.8-8.24s41.8 2.07 39.8 0.68c-2.1-1.37-38.4-6.15-29.5-6.15s78.2-25.37 78.2-25.37-87.1 19.88-82.3 15.76 39.8-15.08 39.8-15.08l-32.3 4.8 70-27.42s-66.5 19.88-68.6 19.88 17.1-10.97 17.1-10.97l-11.6 1.37 69.2-34.26s-67.2 27.42-66.5 25.37c0.7-2.07 30.9-17.15 30.9-17.15l-26.1 8.91 32.2-18.5-30.8 10.96 47.3-34.96-26.1 13.03 54.9-43.87-68.6 47.29s77.5-76.76 97.4-115.82c19.8-39.08 38.4-119.28 38.4-119.28l2 21.94 1.4-13.71 0.7 37.69 7.5-9.59-7.5 37.03 6.1-6.19-2.7 12.34 9.6-4.1 4.1 13.7s-15.8 33.59-48.7 76.77-68.5 67.85-68.5 67.85 36.3-14.39 59.6-30.14c23.3-15.78 43.2-28.12 43.2-28.12l-19.2 26.05 13.7-7.54-13.7 14.4 21.9-8.23-10.2 24.69s-28.1 19.86-50.1 30.82c-21.9 10.98-28.8 14.41-28.8 14.41l80.9-28.1-3.4 17.11-13.7 8.92 13-1.36-0.7 11.64-105.5 33.59 101.4 2.75-42.5 6.16 55.5 8.24-21.2 30.15-37-2.07 36.3 15.1-7.5 27.4s-53.5-21.25-72.7-29.46c-19.2-8.23-26-9.6-26-9.6l82.9 40.43-28.8-7.52 23.3 14.39-13.7 23.99-95.3-23.3 92.6 59.61-7.6 12.36-10.3 2.05 3.5 6.16-4.8 15.77-80.9-37.71 47.3 31.54-44.6-18.5 10.3 7.53-32.9-13.02 87.7 67.17-8.9 17.13-18.5-12.32 3.5 7.52s-13.7-8.21-15.8-8.89c-2.1-0.7 17.1 20.55 17.1 20.55l-7.5 12.34-75.4-65.12 17.8 20.57-13.7-8.22 60.3 64.43-6.1 12.32-8.3-6.85 4.1 11.66-8.9 4.8-65.1-65.11 59 79.5-7.6 6.16-19.2-18.5-10.2-7.54-13.1-8.22 33.6 45.92-13 13.03-7.5-4.12-0.7 12.34-67.2-82.25 11 23.3-24.7-23.3 8.2 18.5-23.3-18.5 87.1 97.33-14.4 6.85-19.2-10.29 13.7 13.04-12.4-4.8 11 12.33-11.6 7.54-72.7-76.08-11-4.8 72 111.05-18.5 6.15-14.4-10.27 6.2 17.13-21.3 7.55-53.4-85.68 11.6 31.53-32.2-53.46 50.7 124.06-13 8.22-8.2-14.41 1.3 17.83-52.7 21.25-8.3-54.14 13.7 34.26-32.9-117.19-4.8 64.43-6.8-0.7v-65.8l-6.2 24.69-2.7-15.1-9.6 146.7-6.2-6.17-7.5 2.05-5.5-11.66-5.5 12.34-24-3.42s16.5-47.3 22.6-91.85c6.2-44.55 4.2-72.66 4.2-72.66s-15.1 73.34-27.5 108.99c-12.3 35.64-16.4 48.67-16.4 48.67l-8.9-2.75-15.8 17.82-16.4-6.85 15-37.7-13.7 21.94-12.3-11.66s17.8-40.45 29.5-72.66c11.6-32.2 13-51.4 13-51.4s-43.2 85-51.4 99.37c-8.2 14.41-15.8 19.88-15.8 19.88l10.3-17.81-29.5 42.5-4.8-2.75 65.2-113.09s-39.1 47.29-54.2 69.22-28.1 33.59-28.1 33.59h-17.2s23.4-50.03 28.9-65.11c5.4-15.08 20.5-43.87 19.1-41.12-1.3 2.74-43.8 69.91-52.7 84.98-8.9 15.08-11 18.52-11 18.52l-39.8-2.07s13.7-14.38 39.1-45.92c25.4-31.52 32.9-45.93 32.9-45.93l-38.4 42.5 13.7-23.3-9.6 6.85 8.3-15.06-6.2 0.68 17.8-29.49s-31.5 39.07-47.3 60.32-28.1 30.17-28.1 30.17l-6.8-4.12-4.8 2.05-32.3-15.76s51.5-51.41 65.2-71.97c13.7-20.55 18.5-37 18.5-37l-30.2 33.58 8.2-15.08-39 28.1 20.5-20.56s-16.1 12-33.1 25.49c-8 6.39-16.2 13.11-23.1 19.06-21.2 18.51-32.9 22.62-32.9 22.62s37-29.48 53.5-45.92c16.4-16.46 25.3-24.67 25.3-24.67s-54.1 43.18-76.7 59.63c-22.6 16.43-40.5 24.67-40.5 24.67l-20.5-10.29s45.9-23.3 56.9-29.46c10.9-6.17-10.3 1.37-10.3 1.37s30.2-21.25 38.4-27.42-6.2 0-6.2 0l24-21.25s-36.3 19.88-74.7 42.5c-38.4 22.61-45.3 23.3-45.3 23.3l-26.7-9.61" fill="#2da9e4"/>
  </g>
  <g transform="matrix(.061923 0 0 -.061923 -926.46 224.01)">
   <path d="m16169 2160.5c-13.1-2.61-21.8-12.47-21.9-12.58l-0.7-0.9s-7.2 1.34-10.1 1.89c-0.1-1.8-0.1-3.06-0.3-5.34 5.7 2.28 17.5 5.54 25-2.62 3.4-3.56 4.5-7.93 4.5-12.23 0-4.96-1.5-9.78-2.9-13.09 4.4 1.66 10.8 5.34 11.6 12.97 0 0.57 0.1 1.15 0.1 1.69 0 10.43-10.3 15.5-10.8 15.73l-2.9 1.36 8.7 7.66c3.2 2.88 8.3 4.82 12.7 6.11-3.5 0.35-7.9 0.38-13-0.65zm100.4-33.27c-0.5-0.78-0.8-1.55-0.8-2.36 0-0.43 0.1-0.87 0.3-1.34 1.4-4.69 9.4-9.42 14.2-11.78 1.1 5.71 2.2 11.44 3.2 17.17-2.5 1.2-12.3 5.43-16.9-1.69zm27.5 148.22l2.4-0.83c-2.5 2.71-16.5 18.48-33.1 48.45-0.7-1.7-1.4-4.03-1.4-7.07 0-4.16 1.2-9.59 5.3-16.32 11.3-18.6 26.7-24.17 26.8-24.23zm-1.8-80.05c0.6 5.82 1.1 11.45 1.5 16.83-2.8-2.01-6.3-4.46-7.8-5.49 1.7-2.39 4.7-6.77 6.3-11.34zm-9.6-18.85c-0.1-0.03-0.3-0.11-0.4-0.5-0.2-0.26-0.3-0.76-0.3-1.61 0-1.22 0.3-3.18 1.5-6.23 1.8-4.41 3.5-6.89 4.8-8.25 1 7.61 1.9 15.1 2.7 22.38-3.6-4.86-7.1-5.67-8.3-5.79zm-29.4-169.94c1.5 5.11 2.9 10.28 4.4 15.47-4-1.91-9.4-4.5-11.3-5.46 1.2-1.85 4.5-6.56 6.9-10.01zm31.2 213.39c-1.8 0.16-3 1.19-4 2.31-0.7-1-1.6-2-2.9-2.77-3.8-2.15-9.1-1.78-15.7 1.09-8.4 3.67-12.5 8.73-14.6 13.06-0.4-2.57-0.8-5.59-0.8-8.77 0-6.33 1.5-13.23 6.6-18.33 12-12.04 19.6-10.61 19.6-10.61l2.6 0.54v-18.51l-3 1.5c-2 1-8 3.15-11.4 1.14-1.9-1.11-2.9-3.47-3-7.03-0.7-14.36 24.2-24.36 24.5-24.47l3.3-1.3-2.8-2.25c-0.3-0.29-8.7-6.97-22.9-2.49-7.8 2.5-11.4 6.01-13.1 8.79-2.6-4.04-6.8-12.36-8.6-25.91-0.3-2.08-0.4-4.17-0.4-6.23 0-11.62 3.9-22.34 6.7-28.42 1.1 3.51 3.1 7.61 6.5 9.61 2.8 1.62 6.1 1.63 9.7 0.03 4.5-2 7.4-7.04 8.2-14.18 1.5-13.26-4.4-32.89-18.3-43.12-12.4-9.21-24.5-8.57-30-3.2-2.1 1.97-3.1 4.41-3.1 6.98 0 2.21 0.7 4.52 2.3 6.75 3.2 4.68 6.7 7.39 10.6 8.08 0.1 0.03 0.2 0.02 0.4 0.05-1.7 1.51-4.1 2.98-6.9 3.43-4.7 0.74-9.7-1.25-15-5.95-9.5-8.38-8-17.84-6.3-22.74 2.9-8.1 10.1-14.42 16.9-14.76 13.1-0.62 17.1 3.45 17.2 3.5l3.2-2.67s-10.3-13.57-12.2-15.99c2.3-2.32 7.2-7.51 12.8-14.17 2.7-3.19 4.5-6.8 5.7-10.23 1.8 6.07 3.6 12.32 5.5 18.68l-11.7 16.83s17.2 8.24 18.8 9.01c0.4 1.82 19.4 77.16 20.2 80.37-4.2 2-14.9 7.58-17 14.65-0.3 0.85-0.4 1.71-0.4 2.56 0 1.6 0.4 3.18 1.4 4.65 5 7.79 14.4 6.43 20.4 3.98 0.8 3.98 3.6 19.13 4.1 21.59-2 1.25-5 4.22-8 11.58-1.2 3.06-1.8 5.68-1.8 7.81 0 1.5 0.3 2.77 0.9 3.8 0.9 1.56 2.3 2.26 3.5 2.42 0.1 0 3.3 0.28 6.7 5.96 0.4 0.7 0.6 1.55 0.6 2.53 0 4.8-4.6 12.35-8.1 16.71l-1.5 1.73 14.4 10.03c0.2 3.86 0.5 7.57 0.7 11.14-3.6-6.23-7-9.13-10.5-8.79zm-1.7 48.78c3.6-4.09 10.3-12.46 13.3-21.58 0.6 12.37 0.7 21.2 0.8 24.94-4.5-1.05-11.5-2.73-14.1-3.36zm-96.3-308.97c0 2.82 0.2 4.86 0.5 6.32-3.7 0.48-11.1 1.68-17.5 4.05 6.6-10.56 13.1-20.19 19.3-28.72-0.5 2.4-1 4.85-1.4 7.29-0.7 4.5-0.9 8.16-0.9 11.06zm-49.5 128.71c-4.5 1.8-25 9.99-25 9.99l3 2.23c0.1 0.06 6.3 4.81 6.3 9.76 0 1.13-0.4 2.27-1.2 3.39-2.9 4.04-10.5 6.81-16.4 8.35 6-19.34 14.3-43.74 25.1-70.94-0.2 3.73-0.3 7.42-0.3 10.75 0 3.04 0.1 5.77 0.3 7.95 1 9.11 5.4 15.36 8.2 18.52zm110.8 105.16c-3.1 2.57-9.5 8.34-12.8 15.44-1.6 3.63-3 7.64-4 11.21-0.1-0.7-0.8-4.87-0.8-4.87l-2.4 0.97c-0.2 0.07-18.4 7.24-28.5 2.41-2.9-1.37-4.7-3.55-5.7-6.68-0.8-2.55-1.1-4.79-1.1-6.77 0-2.19 0.5-3.98 1.1-5.58 0 0.49 0 0.98 0.1 1.48 1 5.31 7.6 10.61 14.7 11.84 7.1 1.21 13.4-1.85 17.1-8.37 2.7-4.72 3.7-8.81 3.7-12.26 0-2.55-0.6-4.68-1.3-6.48 3.4 1.44 9.9 4.18 9.9 4.18l-0.2-3.33c0-0.61-0.9-14.76-16.7-20.03-10.1-3.36-21.2 3.46-28.2 9.02 2.9-5.04 8.3-11.35 18.5-15.55 16.5-6.81 27.8 4.61 30.4 7.67-0.3 1.77-1 5.43-1 9.29 0 2.79 0.3 5.63 1.5 7.84 1.8 3.69 4.2 6.77 5.7 8.57zm-35.1-267.45c-3.9 2.03-6 6.29-6.1 12.68-0.2 7.89 2 13.93 6.5 17.95 5.3 4.71 12.2 5.3 15.9 5.25-0.3 2.47-1.2 7.62-4 17.62-2.3 8.02-6.6 14.71-10.3 19.4 0.3-1.69 0.6-3.48 0.6-5.26 0-2.45-0.5-4.92-1.6-7.12-2.3-4.36-6.9-6.88-13.7-7.5-6.3-0.56-11 1.04-13.9 4.8-2.5 3.19-3.3 7.52-3.3 11.74 0 4.18 0.8 8.23 1.5 10.97-3.4-0.75-14.5-3.27-14.5-3.27l4.4 4.89c0 0.11 9.5 10.73 7.9 19.35-0.5 3.25-2.6 5.79-6.3 7.74-4.2 2.24-7.8 2.65-10.6 1.21-5.8-2.93-7.3-12.63-7.3-12.72l-0.5-3.3-2.7 1.84c-0.6 0.38-5.6 4.12-7.7 19.78-2.1 15.31 0.9 33.36 1 34.12l4.1 0.27c0-0.18 6.1-18.83 18.4-22.14 8.7-2.35 15.1-8.73 18.8-13.53v6.01c-3.8 0.75-11.9 4.08-18.6 18.75-1.6 3.45-2.3 7.07-2.3 10.61 0 9.24 4.7 18.05 11 22.58 6 4.36 12.6 4.21 17.6-0.43 3-2.78 4.6-5.78 4.6-8.93 0-0.49-0.1-0.99-0.1-1.49-0.6-3.94-3.6-7.31-6.6-9.86 8.3 1.67 19.5 5.77 19.5 15.69v0.37c-0.4 16.14-17.6 17.28-18.4 17.33l-2.8 0.17s5.8 16.22 6.7 18.84c-1.7 1.09-7.6 4.83-12.4 7.95 0.8-2.98 1.5-6.86 1.5-11.19 0-6.17-1.5-13.24-6.4-19.66-12.2-16.15-44.8-6.38-46.2-5.96l-7.4 2.27 7.5 1.77c0.4 0.07 8.3 2.03 11.1 12.11 0.6 2.3 0.8 4.28 0.8 5.96 0 3.41-1 5.51-1.8 6.75-2.8-1.59-8.9-3.12-22.4-1.74-9.4 0.97-16 8.75-16.9 19.83-0.9 11.44 5.1 24.8 18.2 28.24 8.4 2.21 14.9 1.6 19.3-1.79 2.9-2.21 4.2-5.13 4.8-7.37 1.9 1.05 4.9 2.45 9.2 3.88 4.4 1.46 10.7 1.98 15.6 2.16-5.8 3.95-13.6 10.75-16.1 20.15-0.6 2.05-0.9 4.13-0.9 6.22 0 5.67 2.1 11.45 6.1 17.25 6.7 9.52 14.4 15.01 23.1 16.36 10.1 1.54 18.1-3 20.8-4.75 0.9 0.33 2.2 0.83 4.2 1.56-1.6 1.68-3.8 4.16-5.8 7.59-1.2 2.09-1.8 4.61-1.8 7.07 0 2.94 0.8 5.84 2.5 7.92 1.6 1.95 5.3 4.93 12.2 2.72 5.4-1.71 8.8-5.22 10.9-8.71 0.4 7.27 0.7 13.18 0.9 16.26-2-0.45-4.6-0.65-7.3 0.55-4.2 1.82-7.1 6.19-8.7 12.97-4.6 19.36 16.3 27.47 16.5 27.56l4.3 1.62-1.6-4.31c-0.3-0.69-6.1-16.82 5.9-24.18 11.6-7.12 16.9-3.28 17.3-2.89l0.2 0.14 2.7-3.18c0-0.03-0.1-0.1-0.1-0.12 0 0-9.4-7.25-12.2-9.49 1.8-1.69 4.1-3.86 5.6-5.31 1.8 1.54 4.6 3.59 7.9 3.16 2.8-0.34 5-2.25 6.6-5.7 0.9-1.93 1.4-3.7 1.4-5.25 0-1.38-0.4-2.59-1.1-3.67-0.9-1.31-2.2-2.07-3.5-2.58 3.3-2.29 7.8-4.64 10.9-3.62 2 0.65 3.3 2.75 4.1 6.28 0.2 1.12 0.3 2.18 0.3 3.19 0 13.03-17.8 17.2-18.6 17.38l-4.1 0.9s7.1 6.07 9 7.69c-1.4 1.76-4.2 5.44-6.9 8.86-0.5-1.27-1.2-2.53-2.5-3.38-2.1-1.39-4.8-1.33-8 0.18-10 4.71-10.1 18.59-10.1 19.17v0.46l0.2 0.43c0.1 0.06 3.4 7.51 1.4 19.7-2 12.25-8.8 19.77-8.9 19.85l-3.7 4.07 5.5-0.56s4.3-0.41 9.9 1.93c3.2 1.35 5.8 2.96 7.6 4.16-16 38.99-22.6 84.43-22.6 84.43s3.1-22.33 1.7-52.85c2.3-1.76 7-6.04 8.7-12.92 2-8.17-7.7-14.72-11.5-16.93-2.6-17.61-7-36.26-14.3-54.03-30.9-75.14-121.4-129.77-121.4-129.77s3.5-15.43 11.2-40.54c5.8-1.31 16.8-4.48 21.2-10.55 1.4-1.91 2-3.88 2-5.8 0-4.12-2.6-8.03-5.3-10.79 4.7-1.9 21.2-8.5 21.2-8.5l3.3-1.31-2.7-2.24c-0.1-0.07-7.7-6.66-9-18.16-0.3-2.03-0.3-4.57-0.3-7.41 0-7.09 0.5-15.97 1.1-23.22 0.7-1.56 1.3-3.13 2-4.72 8.7-20.74 19.1-40.23 29.7-57.58 6.6-4.05 19.3-6.13 24.2-6.61l2.7-0.29-0.9-2.51c0-0.04-0.8-2.35-0.8-7.39 0-2.66 0.2-6.13 0.9-10.41 0.9-5.72 2.2-11.62 3.4-16.43 14.9-20.03 25.9-32.03 25.9-32.03s3.3 10.18 8.5 26.59c-5.4-2.24-11.9-3.77-16.7-1.3zm21.5 440.92c-0.9 3.82-3.1 6.69-4.9 8.58-0.4-6.11-1-12.48-1.8-19.05 3.7 2.63 7.7 6.6 6.7 10.47zm-7.7-227.38c-4-1.06-8.1-2.11-9.8-2.55v-14.4c0.5-0.58 4-5.04 7.9-9.99-1 3.71-1.7 7.87-1.7 11.7 0 0.63 0.1 1.28 0.1 1.9 0.4 5.56 2 10.18 3.5 13.34zm-2.9-134.28l-1.3 1.3s5.5 7.18 9.3 12.28c-3-0.72-6.9-1.18-12.2-0.93-8.5 0.41-17.2 7.78-20.6 17.55-3.5 10.01-0.8 19.96 7.5 27.27 6.3 5.58 12.4 7.92 18.4 6.95 8.6-1.4 13.2-9.22 13.4-9.56l-3-2.78c-0.6 0.36-5.6 3.27-11.8-5.74-2.1-3.1-2-6.14 0.3-8.33 4.2-4.06 14.2-4.2 24.6 3.54 12.2 8.97 18 27.03 16.6 39.29-0.6 5.61-2.6 9.46-5.7 10.82-2.3 1.04-4.3 1.1-5.9 0.16-3.9-2.25-5.5-9.73-5.8-12.42l-0.7-6.3-3.2 5.47c-0.5 0.84-12.2 21.1-9.3 42.49 2.8 21.33 11.3 30.76 11.7 31.14l3.3 3.59 0.3-4.95c0-0.07 0.4-5.64 11.8-9.22 7.1-2.26 12.4-1.25 15.5-0.05-7.5 3.71-23.1 12.91-23.1 26.03v0.71c0.2 5.08 1.9 8.59 5.1 10.45 4 2.33 9.1 1.28 12.3 0.23v7.31c-3.7 0.19-11.2 2.01-21 11.83-6.1 6.12-7.8 14.12-7.8 21.3 0 9.36 2.9 17.32 3.1 17.92l4.1-0.85c0-0.47-0.3-11.25 14.1-17.53 5.2-2.25 9.3-2.72 11.8-1.32 2.3 1.29 2.7 3.77 2.7 3.87l4.1 0.39c0.3-0.96 1.4-3.12 2.7-3.24 0.6-0.06 2.9 0.29 6.7 7.08 1.3 2.26 1.8 4.69 1.8 7.22 0 13.71-15.9 29.86-16.1 30.04l-2.6 2.65s8.3 1.99 12.5 3c-5.9 3.34-15.5 10.28-23.4 23.35-4.6 7.46-6 13.62-6 18.48 0 5.48 1.8 9.29 3.3 11.41-1.3 2.42-2.6 4.91-3.9 7.48-1.8 3.47-3.5 7.05-5 10.7-1.9-1.26-4.5-2.79-7.7-4.09-3-1.25-5.6-1.8-7.7-2.07 2.5-3.6 6-10.02 7.4-18.68 0.5-3.04 0.7-5.81 0.7-8.28 0-7.53-1.7-12.1-2.2-13.34 0.1-1.74 0.7-11.75 7.7-15.02 1.2-0.59 2.9-1.15 3.9-0.5 1.2 0.82 1.5 3.59 1.5 4.79l-0.3 6.56 16.2-20.88s-3.8-3.27-5.9-5.07c8-2.76 18.1-9.22 18.1-20.31 0-1.29-0.1-2.65-0.4-4.06-1.1-5.1-3.4-8.26-6.9-9.41-7.6-2.47-17.5 6.25-18.6 7.25l-4.2 3.87 5.7-0.24c1-0.03 4 0.18 5 1.63 0.7 1.22 0 3.27-0.7 4.8-1 2.06-2.1 3.18-3.3 3.35-2.2 0.28-5-2.33-5.7-3.27l-1.5-1.7-12.2 11.56s5.4 4.24 8.9 6.97c-3.3 0.34-7.5 1.57-12.6 4.7-7.3 4.52-9.5 11.9-9.5 18.54 0 2.09 0.2 4.09 0.6 5.92-4.3-2.6-10.5-7.76-10.5-16.22 0-1.38 0.2-2.85 0.6-4.41 1.3-5.4 3.4-8.79 6.2-10.08 3.4-1.48 6.9 0.43 6.9 0.44l3.4 1.83-1.8-33.07-4.2-0.13c-0.1 0.47-1.6 11.8-11.6 15-3.5 1.11-6.1 0.65-7.7-1.35-2-2.48-2.1-7.17-0.4-10.26 3.4-5.79 7.3-8.76 7.3-8.79l3.1-2.31-12-4.46-0.2-0.1c7.6 0.1 15.5-2.2 19.3-3.49 0.5 3.18 1.7 10.07 1.7 10.07l4.1 0.03c0-0.12 2.1-11.7 6.1-20.42 3.9-8.45 13.2-15.15 13.3-15.23l2-1.43-1.7-1.74c-0.1-0.05-4-4.04-6.6-9.22-2-4.01-0.6-12.4 0.2-15.32l0.2-0.97-0.6-0.8c-0.2-0.16-14.5-18.61-36-9.73-21 8.72-24.1 25.97-24.3 26.7l-1.1 6.88 4.7-5.11c0.2-0.18 17.4-18.48 30.6-14.09 8.7 2.89 11.9 8.82 13.2 12.68-3.9-1.62-9.6-4.04-9.6-4.04l-2.1 3.57c0.3 0.27 8.2 6.84 0.9 19.65-3.7 6.4-9 6.98-12.8 6.33-5.7-0.99-10.7-5.27-11.3-8.45-1-6 4.3-8.81 4.5-8.92l-1.6-3.87c-0.1 0.06-17.2 5.75-11.1 25.64 1.3 4.25 3.9 7.36 7.9 9.23 2.7 1.29 5.7 1.86 8.9 2l-0.5 0.43c-0.1 0.08-8.4 6.24-18.7 4.62-7.5-1.16-14.3-6.08-20.2-14.6-4.8-6.89-6.4-13.59-4.7-19.96 3.6-13.4 20.4-21.34 20.6-21.42l-1-4c-0.1 0-14.3 0.49-21.7-1.98s-11-4.93-11-4.95l-3.3-2.3v4c0 0.03-0.1 4.69-3.7 7.43-3.3 2.53-8.6 2.88-15.7 1.01-10.8-2.84-15.8-14.15-15-23.85 0.5-7.15 4.3-15.07 13.2-16 17.4-1.78 20.4 1.58 20.5 1.62 0.2 0.39 1.1 2.12 1.1 2.12l2-1.57c0.2-0.2 4.3-3.67 4.3-11.37 0-2.04-0.3-4.37-1-7.04-1.8-6.47-5.4-10.23-8.5-12.39 9.4-1.98 28.4-4.42 36.2 5.84 10.6 13.97 2.5 32.22 2.4 32.4l-3 6.45 26.2-16.74s-4.6-13.26-5.9-16.9c7.8-1.32 19.2-6.8 19.6-21.06v-0.54c0-19.65-31-20.92-32.3-20.98l-1 3.98c3.1 1.48 11.2 6.48 12 11.84 0.4 2.27-0.7 4.46-3.1 6.72-4.8 4.43-9.8 1.98-12.4 0.12-7.3-5.31-12-17.86-7.3-28.06 7.6-16.58 16.8-16.58 16.8-16.58l2.2 0.05v-25.08l-3.9 7.31c-0.1 0.14-7.6 13.9-20.2 17.29-9 2.43-15 11.13-18.2 17.6-0.4-3.85-0.8-8.75-0.8-13.94 0-3.77 0.2-7.63 0.7-11.31 1-7.03 2.5-11.26 3.8-13.76 1.2 3.81 3.7 8.94 8.3 11.33 4.1 2.1 9 1.69 14.5-1.23 4.9-2.57 7.8-6.17 8.6-10.73 0.1-0.88 0.2-1.76 0.2-2.65 0-5.82-3.1-11.61-5.7-15.51 3 0.66 9.6 2.18 9.6 2.18l-1.2-3.56c-1.5-4.27-4.3-16.59 0.2-22.29 2-2.59 5.4-3.63 10.2-3.2 5.3 0.49 8.8 2.26 10.4 5.29 3.6 6.84-2.6 18.19-2.6 18.29l3.2 2.62c0.5-0.46 13.6-11.59 18.4-28.75 4.6-16.35 4.4-20.6 4.3-21.27l-0.3-2.06-2.1 0.27c-0.1 0.02-9.2 1.14-15-4.09-3.5-3.17-5.3-8.12-5.1-14.71 0.1-4.74 1.4-7.78 3.9-9.07 4-2.11 11 0.32 16.4 3 3.7 11.82 8.2 26.24 12.9 42.07-0.8 4.39-2.5 10.5-6.6 15.27-7.5 8.88-13.7 15.17-13.8 15.21zm-34.5 153.59c-0.1-0.02-14.1-2.07-19.8-7.16 0 0-2.3-2.03-4.2-3.68 3.9-2.55 10.6-8.37 10.6-17.89 0-0.71-0.1-1.45-0.2-2.19-1.5-14.67-18.4-17.77-19.1-17.89l-4.4-0.76 2.2 3.83c0.1 0.17 8.9 16.24 1 24.76-7.9 8.46-23.1 0.37-23.3 0.29l-3.3-1.78 1.1 17.28s10.5-1.99 12.3-2.33c2.6 2.65 11.1 10.59 23.4 13.04 14.4 2.89 23.9-1.36 24.3-1.54l6.4-2.97zm23.4-37.72v19.09l23.1 6.02-3.2-4.64c-0.1-0.08-4.6-6.68-5.2-15.7-0.7-9.17 4.6-22.67 4.7-22.79l-3.6-2.08-15.8 20.1" fill="#f4e516"/>
  </g>
  <g transform="matrix(.061422 0 0 -.061422 -926.46 224.01)">
   <path d="m16203 2504.8c6.8 3.68 11.9 3.83 15.4 3.02-2.3 4.21-6.7 9.46-14 8.33-12.2-1.88-15.6-11.85-15.8-12.28l-1.9-5.78-2 5.7c-0.2 0.46-4.1 11.49 7.9 22.34 8.2 7.38 18.4 5.78 24.4 3.87-0.6 0.96-1.4 2.03-2.4 3.19-2.1 2.41-9.1 3.57-14.6 3.92-9.3-8.04-19.4-16.75-29.5-25.58l9.5 2.29-3.8-4.81c-2.6-3.25-9.1-12.53-9.1-18.17 0-0.26 0.1-0.52 0.1-0.75 0.1-1.05 0.5-1.82 1.2-2.36 5.4-4.23 15.9-5.12 20.1-5.3 0.7 4.64 3.6 16.42 14.5 22.37zm-40-15.2c0 0.4-0.1 0.78-0.1 1.19 0 5.27 3.7 11.78 6.6 16.15-2.1-0.51-4.2-1.01-5.9-1.41-5-4.4-10-8.8-14.9-13.14-8.2-9.3-15.4-18.89-15.4-22.95 0-0.15 0-0.3 0.1-0.44 0-0.35 0.1-0.45 0.4-0.58 6.5-3.25 17 8 20.6 12.59l3.1 4.06 0.6-5.07c0.1-0.77 1.9-14.74-2.1-25.28 10 8.33 19.8 16.23 29.3 23.68-5.5 0.49-14.2 1.89-19.5 6-1.6 1.27-2.5 3.02-2.8 5.2zm-49.9-47.22c0.3-3.41 1.8-17.03 2.5-23.65 8.6 8.15 17.3 16.02 26 23.57-10-2.3-22.9-0.79-28.5 0.08zm92 58.7c-7.6-4.06-10.6-11.72-11.9-16.58 8.8 6.72 17.3 13.02 25.4 18.89-2.4 0.91-6.8 1.35-13.5-2.31zm41.9 76.24s-11.2-9.43-27.5-23.48c1.4-2.38 3.1-5.27 4.6-7.65 0.1 3.85 0.9 8.2 3.3 11.46 2 2.81 4.9 4.46 8.6 4.89 4.2 0.48 7.6-0.54 10-3.02 3-3.17 3.6-7.97 3.6-11.22 2.7 1.05 5.1 2.01 7.1 2.78-0.9 2.29-2.1 5.98-2.1 9.59 0 2.17 0.5 4.28 1.7 5.91 1.8 2.47 4.9 3.42 9.2 2.81 4.3-0.63 7.3-2.49 8.8-5.57 0.8-1.59 1.1-3.38 1.1-5.16 0-3.66-1.3-7.39-2.3-9.8 0.6-0.18 1.3-0.42 2-0.79 1.6-0.78 2.8-2.56 3.6-4.2 13.6 8.52 21.7 13.05 21.7 13.05zm-115.1-112.67c-1.5 0.75-2.4 2.03-2.7 3.7-0.4 2.38 0.9 5.7 3 9.43-0.9-0.81-1.8-1.64-2.7-2.45-13.5-12.13-26.5-25.78-38.1-39.13 3-2.26 8.2-6.76 9.4-12.18 0.7-2.9 0.1-5.67-1.5-8.24-5.8-8.63-19.8-4.59-25.8-2.38-0.2-3.32-0.7-9.53-1-13.55 3.6 1.64 9.6 3.92 14.4 3.92s7.8-1.97 9.5-3.6c5.1 5.05 10.2 10.03 15.3 14.9l-3.4 32.45 2.8-0.54c0.2-0.04 26.6-5 36.3 2.26 5.9 4.4 7 14.91 7 22.3 0 1.05-0.1 2.04-0.1 2.93-5-5.42-14.4-13.8-22.4-9.82zm124.6 64.94c3 1.97 5.8 3.83 8.5 5.59-2.7 0.59-5.9 1.28-7.5 1.61-0.2-1.54-0.6-4.48-1-7.2zm16.8 14.71c-1.7 0.81-3.3 0.84-3.3 0.84l-3.6 0.05 1.7 3.08c1.4 2.42 4.4 9.61 2.4 13.67-0.9 1.78-2.7 2.85-5.6 3.27-2.6 0.36-4.4-0.02-5.2-1.16-2-2.66-0.1-9.55 1.7-13.28l0.9-2.04-17.6-6.89 0.5 3.62c0.3 2.11 0.6 8.19-2.3 11.14-1.4 1.51-3.5 2.07-6.4 1.74-2.5-0.29-4.3-1.31-5.7-3.17-4.2-5.73-2-16.89-2-17l-3.9-1.51s-6.2 10.24-8.7 14.38c-3.7-3.18-7.7-6.57-11.8-10.11 4.9-0.63 10.7-1.95 13.3-4.94 4.6-5.08 5.3-9.11 5.3-9.54l0.6-4.1-3.7 1.93c-0.1 0.08-14.6 7.6-24.5-1.28-4.4-4.04-6.2-7.99-6.9-11.14 2.9 3.5 7.6 7.29 15.2 8.46 10.7 1.64 17.1-6.9 19.8-13.42 3.8 2.66 7.4 5.22 10.9 7.68-1.4 3.4-5.6 14.2-2.3 20.46 1.1 2.27 3.1 3.75 5.8 4.26 6.8 1.29 11.7-2.96 14.6-7.71 0.6 4.01 1.5 10.27 1.5 10.27l16.1-3.45c1.7 1.11 3.4 2.18 5 3.21-0.6 1.28-1.3 2.44-1.8 2.68zm-34.6-9.15c-1.4-0.28-2.3-0.92-2.9-2.03-2-3.88 0.5-11.83 2.2-16.07 4.4 3.07 8.7 5.98 12.8 8.71-1.6 3.74-5.4 10.65-12.1 9.39zm-167.7-140.64l-3.3-1.77 1.2 16.27c-17.1-21.91-28-38.47-28-38.47l18.3 61.19-25.4-37.98s-1.9-6.2-5-15.82h11.4l-0.2-2.29c-0.3-3.27-0.4-6.5-0.4-9.31 0-3.52 0.2-6.35 0.6-7.86 4.4 4.64 14.7 22.97 18.5 29.95l3.1 5.8s1.7-13.65 2.1-16.8c3.4 0.89 13.8 3.65 15 3.95 3.9 4.61 8.1 9.21 12.6 13.78 0.7 0.68 1.3 1.31 2 1.99-1.1 1.06-3.2 2.41-6.6 2.41-6.2 0-15.8-4.98-15.9-5.04zm-63.9-119.56l-1.1 1.63 1.6 1.21c4.3 3.29 8.1 7.14 8.8 8.85-0.1 0-0.3 0.03-0.3 0.03-12.616-4.2802-19.446-7.3502-23.9-17.62l18.2-10.08-1.3-3.93s-3.6 0.49-10.6-0.02c-4.1-0.29-6.8-1.98-8.2-3.2 2.3-2.53 4.7-6.52 4.7-11.26 0-1.69-0.3-3.49-1.1-5.34-2.7-6.78-8.8-9.5-12.6-10.59 2.3-3.33 8.8-12.59 12.5-17.79 0.8 3.96 2.6 9.73 6.4 16.51 4.3 7.72 9.3 11.61 12.7 13.53-3.9 2.55-11.5 7.4-11.5 7.4l-5.6 3.63 6.7 0.24s3.1 0.16 10.2 3.5c4.7 2.18 8.3 9.29 10.1 13.9-2.4 0.08-5.6 0.46-8.1 1.88-4.1 2.32-7.4 7.3-7.6 7.52zm13.1-39.81l-2.4-0.62c0-0.03-7.7-2.17-13.9-13.25-6.5-11.43-6.6-19.99-6.6-20.06l-0.1-6.63-21.2 30.22-2 2.93 3.5 0.38c0.1 0.01 9.4 1.08 12.5 8.72 0.6 1.33 0.8 2.61 0.8 3.81 0 5.47-4.6 9.38-4.9 9.58l-1.6 1.31 1.3 1.62c0.2 0.22 4.3 5.49 12.6 6.08 1 0.08 1.9 0.11 2.8 0.16-3.9 2.1-8.1 4.42-10.5 5.78-10-21.96-24.2-42.33-24.2-42.33l23.9-34.47 31 25.33s-1.3 8-1 21.44zm39.1 145.56c-4.6-8.21-12.8-22.37-16.8-25.98-1.9-1.65-3.5-1.11-4.1-0.83-2.1 1.04-3.1 5.18-3.1 12.32 0 2.18 0.1 4.74 0.3 7.49h-8.1c-0.5-1.69-1.1-3.45-1.7-5.28-0.9-4.78-1.5-9.82-1.5-14.14 0-5.13 0.9-9.19 3-10.38 5.7-3.22 15.3 5.08 18.5 8.54l2.4 2.59 3.9-11.13c6.2 10.5 13.5 21.2 22.1 31.87l-13.9-3.67s-0.6 5.51-1 8.6zm36.4 37.43c1.1 1.57 1.4 3.19 1 4.96-0.9 3.97-5.2 7.84-8.1 9.92-4.6-5.4-9-10.71-13.2-15.84 6.2-2.23 16.7-4.58 20.3 0.96zm-71.8-90.65c1.1-2.91 2.7-6.22 4.6-7.38 2.8-1.79 8.6-1.16 10.5-0.77l0.6 0.1c2.3 5.26 4.9 10.62 7.8 16.05-4.3-2.66-10.4-6.09-15.4-7.1-3.6-0.73-6.2-0.91-8.1-0.9zm-9.4-79.64c-2.7-1.29-4.9-2.11-6.6-2.7 4.3-2.75 10.5-6.81 10.5-6.81l1.9-1.19c0.2 5.05 0.6 10.79 1.3 17.12-1.9-2.7-4.3-5.11-7.1-6.42zm-7.7 60.22c-1.4-3.77-3.3-8.61-5.1-13.35-1.4-3.85-2.6-7.42-3.7-10.63 5.2 3.27 12.8 7.15 18.4 6.81 2.9-0.2 3.9-1.58 4.3-2.71 0.1-0.31 0.1-0.63 0.1-0.98 0-3.34-4.5-7.79-9-11.46 1.2-1.43 3-3.49 5-4.64 1.9-1.12 5.1-1.37 7.2-1.37 1.8 9.55 4.5 19.97 8.2 30.99-3-3.2-6.8-5.61-11.2-5.61-8.2 0-12.3 7.23-14.2 12.95zm18.5 32.15c-3.2 1.78-4.6 5.93-5.1 10.8-3.6-11.41-7.7-23.83-11.5-35.52l0.7-0.08c0-0.18 2-16.09 11.6-16.09 6.9 0 12.5 9.3 15.2 15.41-3-0.19-7.1-0.02-10 1.8-4.8 3-7 11.9-7.3 12.9l-0.7 3.62 3.5-1.14c0-0.02 2.5-0.78 9.4 0.61 6 1.19 14.4 6.65 17.4 8.77-0.5 1.45-1.2 3.47-2 5.92-4.4-3.98-13.8-11.18-21.2-7" fill="#f4e516"/>
  </g>
  <g transform="matrix(.062443 0 0 -.062443 -926.46 224.01)">
   <path d="m16021 2606.8s138.1-72.63 208.6-182.65c70.6-109.99 59.2-210.66 59.2-210.66s3.1 119.33-81 232.46c-84 113.12-186.8 160.85-186.8 160.85" fill="#2d3335"/>
  </g>
  <g transform="matrix(.062443 0 0 -.062443 -926.46 224.01)">
   <path d="m16021 2606.8s138.1-72.63 208.6-182.65c70.6-109.99 59.2-210.66 59.2-210.66s3.1 119.33-81 232.46c-84 113.12-186.8 160.85-186.8 160.85z" fill="none" stroke="#2d3335" stroke-miterlimit="2.6131" stroke-width="1.9474"/>
  </g>
  <g transform="matrix(.060739 0 0 -.060739 -926.46 224.01)">
   <path d="m16292 2588.7c-6.4 7.11-15.7 10.68-15.7 10.68s-17.1-16.37-28.4-22.76c-11.4-6.4-29.9-7.82-29.9-7.82s9.2-0.02 18.8-1.12c7.1 1.39 17.3 4.29 25.3 10.19 13.5 9.95 16.3 14.94 16.3 14.94s-4.2-12.1-19.2-19.22c-6.6-3.17-11.3-5.49-14.4-7.09 2.7-0.53 5.2-1.18 7.3-1.98 11.4-4.27 19.2-12.79 19.2-12.79l29.2 21.33s-2.1 8.53-8.5 15.64z" fill="none" stroke="#2d3335" stroke-linecap="round" stroke-linejoin="round" stroke-miterlimit="2.6131" stroke-width="11.617"/>
  </g>
  <g transform="matrix(.060739 0 0 -.060739 -926.46 224.01)">
   <path d="m16292 2588.7c-6.4 7.11-15.7 10.68-15.7 10.68s-17.1-16.37-28.4-22.76c-11.4-6.4-29.9-7.82-29.9-7.82s9.2-0.02 18.8-1.12c7.1 1.39 17.3 4.29 25.3 10.19 13.5 9.95 16.3 14.94 16.3 14.94s-4.2-12.1-19.2-19.22c-6.6-3.17-11.3-5.49-14.4-7.09 2.7-0.53 5.2-1.18 7.3-1.98 11.4-4.27 19.2-12.79 19.2-12.79l29.2 21.33s-2.1 8.53-8.5 15.64" fill="#f4e516"/>
  </g>
  <g transform="matrix(.062149 0 0 -.062149 -926.46 224.01)">
   <path d="m16219 2472.1s-12.5-69.87 13.5-123.05c26.1-53.17 67.8-86.53 67.8-86.53s-4.2-109.48-36.5-256.5c-32.3-147.01-57.3-211.66-57.3-211.66s55.2 192.89 71.9 321.14c16.7 128.26 16.7 144.94 16.7 144.94s-51.1 37.52-69.9 93.82c-18.7 56.31-6.2 117.84-6.2 117.84" fill="#2d3335"/>
  </g>
  <g transform="matrix(.062149 0 0 -.062149 -926.46 224.01)">
   <path d="m16219 2472.1s-12.5-69.87 13.5-123.05c26.1-53.17 67.8-86.53 67.8-86.53s-4.2-109.48-36.5-256.5c-32.3-147.01-57.3-211.66-57.3-211.66s55.2 192.89 71.9 321.14c16.7 128.26 16.7 144.94 16.7 144.94s-51.1 37.52-69.9 93.82c-18.7 56.31-6.2 117.84-6.2 117.84z" fill="none" stroke="#2d3335" stroke-miterlimit="2.6131" stroke-width="1.9566"/>
  </g>
  <g transform="matrix(.061621 0 0 -.061621 -926.46 224.01)">
   <path d="m16256 2516.4s32.3-72.91 10.6-145.12c-21.8-72.22-138.1-121.99-138.1-121.99s112.8 39.25 142.3 121.99c29.4 82.72-14.8 145.12-14.8 145.12" fill="#2d3335"/>
  </g>
  <g transform="matrix(.061621 0 0 -.061621 -926.46 224.01)">
   <path d="m16256 2516.4s32.3-72.91 10.6-145.12c-21.8-72.22-138.1-121.99-138.1-121.99s112.8 39.25 142.3 121.99c29.4 82.72-14.8 145.12-14.8 145.12z" fill="none" stroke="#2d3335" stroke-miterlimit="2.6131" stroke-width="1.9733"/>
  </g>
  <g transform="matrix(.061781 0 0 -.061781 -926.46 224.01)">
   <path d="m16111 2054.9c-45.1 146.99-40.9 200.68-40.9 200.68s127.3 64.33 139.9 122.36c11.6 53.63-6.6 112.03-9.4 120.6l-4.6-19.02s-117.9-48.24-162.2-97.54c-41.6-46.13-47.9-56.75-48.6-57.92v-0.12 0.12c1.3 2.47 29.2 54.16 94.4 99.52 62.6 43.64 114.5 72.5 120.7 75.88-0.1 0.1-0.1 0.16-0.1 0.16s-130.3-60.27-191.6-131.46c-45.569-49.807-58.079-106.23-49.1-169.98l-58.5-59.53 13.2-10.33 58 63.63s-24.4 70.62 35 148.25c59.4 77.59 185.3 129.35 185.3 129.35s18.2-58.04-9.8-109.09c-0.5-0.85-0.9-1.7-1.4-2.56 4.2 5.32 8.3 11.04 11.5 16.75 12.6 22.02 12.1 47.72 12.1 47.72s5.3-20.45-10-49.3c-11.7-22.28-34.7-43-44.6-51.27-38.8-35.59-92.1-64.12-92.1-64.12s-6.2-77.61 39.9-213.98c46.2-136.34 192.3-295.08 192.3-295.08l9.8 16.78s-152.4 169.93-189.2 289.5" fill="#f4e516"/>
  </g>
  <g transform="matrix(.062846 0 0 -.062846 -926.46 224.01)">
   <path d="m16284 2115.6s-39.2-23.37-85.2-2.06c-46.1 21.31-53.7 52.24-47.5 69.42s8.6 80.62-18.9 132.84c-27.5 52.25-65.6 70.63-65.6 70.63s-0.1-0.6-0.2-1.67c5-2.48 19.8-11.74 43.5-42.49 29.5-38.49 35.7-80.42 35.7-80.42s-16.5 54.31-44 79.05c-18.5 16.63-29.5 19.61-34.7 19.74 0 0 25.6-8.21 48.3-45.85 22.7-37.63 22.2-49.5 22.2-49.5s-15.5 37.64-33 55.18c-12.3 12.26-26.3 18.7-33.6 21.49 5.2-2.57 23.3-12.62 37.7-34.9 17-26.3 18-37.11 18-37.11s-18 35.56-33 46.39c-7.9 5.75-14 8.44-17.9 9.71 2.5-6.01 5.6-12.07 9.5-17.99 24.1-36.43 55-60.48 55-60.48s-0.5-31.9-5.4-79.61c0.5-6.02 3.7-29.88 23.9-45.99 18.9-14.96 31.2-18.3 35.3-19.04 1-0.15 1.5-0.21 1.5-0.21s-0.5 0.03-1.5 0.21c-5.1 0.82-22.6 4.53-39.4 18.69-14.1 11.98-20 21.16-22.1 25.47-0.1-0.36-0.1-0.71-0.2-1.05 3-7.56 9.5-18.91 23.7-29.91 24.4-18.91 42.6-20.97 42.6-20.97s-25.4 2.4-46.7 17.88c-9.9 7.14-15.8 13.17-19.4 17.6 4.4-7.43 12.1-18.23 23-25.68 18-12.37 48-12.89 48-12.89s-35.6-5.16-55.2-12.9c-11.2-4.4-19.9-10.15-25.2-14.27 5.1 2.67 13.3 6.32 26.2 10.66 26.2 8.86 50.1 12.38 52.2 12.71l0.2 0.02s0-0.02-0.2-0.02c-0.8-0.18-6-1.45-31.7-11.33-23.4-8.95-45.2-24.31-53.3-30.39 7.3 4.62 39 23.33 95.2 39.48 64.6 18.55 88 14.42 88 14.42l-15.8 15.14" fill="#f4e516"/>
  </g>
  <g transform="matrix(.061672 0 0 -.061672 -926.46 224.01)">
   <path d="m16126 2162s11.2-104.36 65.1-191.92c54-87.56 109.3-153.41 109.3-153.41s-104.4 123.99-138 203.13c-33.6 79.16-36.4 142.2-36.4 142.2" fill="#2d3335"/>
  </g>
  <g transform="matrix(.060696 0 0 -.060696 -926.46 224.01)">
   <path d="m16270 1871.7s-31.4 59.77-51.7 141.45c-20.3 81.67-14.4 139.66-14.4 139.66l-3 1.05c-1.3-11.84-6-71.67 17.4-153.68 24.4-85.91 46.1-124.62 48.8-129.24 0.2-0.3 0.3-0.48 0.3-0.48s-0.1 0.17-0.3 0.48c-3 5.2-31.4 54.95-53.6 136.71-21.6 79.54-16.5 138.75-15.6 147.29l-6.1 2.15s-7.7-47.33 5.7-122.06c13.3-74.73 62.9-179.89 62.9-179.89s1.7 0.53 16.6 13.87c14.9 13.36 23.5 24.02 23.5 24.02z" fill="none" stroke="#2d3335" stroke-linecap="round" stroke-linejoin="round" stroke-miterlimit="2.6131" stroke-width="11.625"/>
  </g>
  <g transform="matrix(.060696 0 0 -.060696 -926.46 224.01)">
   <path d="m16270 1871.7s-31.4 59.77-51.7 141.45c-20.3 81.67-14.4 139.66-14.4 139.66l-3 1.05c-1.3-11.84-6-71.67 17.4-153.68 24.4-85.91 46.1-124.62 48.8-129.24 0.2-0.3 0.3-0.48 0.3-0.48s-0.1 0.17-0.3 0.48c-3 5.2-31.4 54.95-53.6 136.71-21.6 79.54-16.5 138.75-15.6 147.29l-6.1 2.15s-7.7-47.33 5.7-122.06c13.3-74.73 62.9-179.89 62.9-179.89s1.7 0.53 16.6 13.87c14.9 13.36 23.5 24.02 23.5 24.02l-30.5-21.33" fill="#f4e516"/>
  </g>
  <g transform="matrix(.061884 0 0 -.061884 -926.46 224.01)">
   <path d="m16141 2582.5s42.9-16.04 88-43.27c45-27.22 70.8-50.61 70.8-50.61l-1-2.8s-23.4 22.7-73 52.02-84.8 44.66-84.8 44.66" fill="#2d3335"/>
  </g>
  <g transform="matrix(.06015 0 0 -.06015 -926.46 224.01)">
   <path d="m16105 2876s78.2-31.58 120.6-60.31 44.6-30.17 44.6-30.17l-35.9 30.17 65.3-35.92s-36.6 25.13-70.4 43.1c-33.7 17.95-124.2 53.13-124.2 53.13" fill="#2d3335"/>
  </g>
  <g transform="matrix(.060429 0 0 -.060429 -926.46 224.01)">
   <path d="m16078 2814.8s60.7-19.29 133.6-63.62c73-44.32 88.7-62.2 88.7-62.2s-51.5 36.47-100.8 65.06c-49.3 28.6-121.5 60.76-121.5 60.76" fill="#2d3335"/>
  </g>
  <g transform="matrix(.060307 0 0 -.060307 -926.46 224.01)">
   <path d="m16300 2693.8s-74.5 45.84-151.9 72.35c-77.3 26.52-114.6 24.36-114.6 24.36s54.5-5.01 126.1-32.23 140.4-64.48 140.4-64.48" fill="#2d3335"/>
  </g>
  <g transform="matrix(.062883 0 0 -.062883 -926.46 224.01)">
   <path d="m16194 2303.1s35.7-32.29 66-75.58c30.2-43.28 40.5-96.86 40.5-96.86s-23.9 66.71-44.7 96.86c-22.6 32.98-51.5 57.71-51.5 57.71s30.2-31.59 46.7-70.07c16.5-38.46 17.9-47.41 17.9-47.41s-20.6 54.28-43.3 85.19c-22.7 30.92-36.4 45.35-36.4 45.35l8.3-4.12-3.5 8.93" fill="#2da9e4"/>
  </g>
 </g>
</svg>
