<?xml version="1.0" encoding="UTF-8" standalone="no"?>
<svg id="svg5615" xmlns:rdf="http://www.w3.org/1999/02/22-rdf-syntax-ns#" xmlns="http://www.w3.org/2000/svg" viewBox="0 0 201.66901 81.716928" height="81.717" width="201.67" version="1.1" xmlns:cc="http://creativecommons.org/ns#" xmlns:dc="http://purl.org/dc/elements/1.1/">
<g id="layer1" transform="translate(-187.09 -445.32)">
<g id="g4192" transform="matrix(.92818 0 0 .92245 12.661 36.378)">
<path id="path5533" style="fill:#5d7fc8" d="m188.26 492.77h9.4188v-15.924h32.282v-9.36h-32.282v-10.972h34.04v-9.3588h-43.459v45.615z"/>
<path id="path5545" style="fill:#5d7fc8" d="m277.72 474.64c-2.0075 6.41-8.0225 11.06-15.131 11.06-8.75 0-15.841-7.0412-15.841-15.738 0-8.6938 7.0912-15.739 15.841-15.739 7.1088 0 13.124 4.6525 15.131 11.06h9.645c-2.205-11.61-12.448-20.396-24.776-20.396-13.935 0-25.236 11.228-25.236 25.075 0 13.844 11.301 25.071 25.236 25.071 12.329 0 22.571-8.7825 24.776-20.394h-9.645z"/>
<path id="path5549" style="fill:#5d7fc8" d="m314.6 443.32-28.746 49.449h10.881l17.865-30.735 17.88 30.735h10.881l-28.761-49.449z"/>
</g>
<g id="text4210" style="stroke:#fff;stroke-width:1.7366" transform="matrix(.77801 0 0 .72029 67.991 153.56)">
<path id="path6831" style="stroke:#fff;stroke-width:1.7366" d="m153.95 517.16h3.8v-13.08h13.36v-3.36h-13.36v-8.84h15.52v-3.36h-19.32v28.64z"/>
<path id="path6833" style="stroke:#fff;stroke-width:1.7366" d="m190.6 487.96c-8.96 0-13.64 6.4-13.64 15.24 0 8.12 5.28 14.44 13.64 14.44s13.64-6.32 13.64-14.44c0-8.84-4.68-15.24-13.64-15.24zm0 26.32c-6.2 0-9.84-4.76-9.84-11.08 0-5.64 1.96-11.88 9.84-11.88s9.84 6.24 9.84 11.88c0 6.32-3.64 11.08-9.84 11.08z"/>
<path id="path6835" style="stroke:#fff;stroke-width:1.7366" d="m220.26 514.28c-5.56 0-7.24-3.28-7.24-9.24v-16.52h-3.8v16.56c0 8.68 3.12 12.56 11.36 12.56 7.84 0 11.2-3.88 11.2-12.56v-16.56h-3.8v16.52c0 5.08-0.76 9.24-7.72 9.24z"/>
<path id="path6837" style="stroke:#fff;stroke-width:1.7366" d="m238.01 517.16h3.8v-22.52l14.72 22.52h4.04v-28.64h-3.8v22.44l-14.72-22.44h-4.04v28.64z"/>
<path id="path6839" style="stroke:#fff;stroke-width:1.7366" d="m266.83 517.16h10.36c8.88 0 13.28-4.84 13.28-14.48 0-9.28-3.92-14.16-13.8-14.16h-9.84v28.64zm3.8-3.36v-21.92h6c7.44 0 10.04 3.52 10.04 10.76 0 7.16-2.32 11.16-9.92 11.16h-6.12z"/>
<path id="path6841" style="stroke:#fff;stroke-width:1.7366" d="m304.06 488.52-11.56 28.64h4.08l3.28-8.56h12.08l3.28 8.56h4.08l-11.56-28.64h-3.68zm-2.92 16.72 3.12-8.24c0.68-1.84 1.32-3.68 1.64-5.48 0.32 1.8 0.96 3.64 1.64 5.48l3.12 8.24h-9.52z"/>
<path id="path6843" style="stroke:#fff;stroke-width:1.7366" d="m329.58 517.16h3.8v-25.28h9.52v-3.36h-22.76v3.36h9.44v25.28z"/>
<path id="path6845" style="stroke:#fff;stroke-width:1.7366" d="m347.36 517.16h3.8v-28.64h-3.8v28.64z"/>
<path id="path6847" style="stroke:#fff;stroke-width:1.7366" d="m370.29 487.96c-8.96 0-13.64 6.4-13.64 15.24 0 8.12 5.28 14.44 13.64 14.44s13.64-6.32 13.64-14.44c0-8.84-4.68-15.24-13.64-15.24zm0 26.32c-6.2 0-9.84-4.76-9.84-11.08 0-5.64 1.96-11.88 9.84-11.88s9.84 6.24 9.84 11.88c0 6.32-3.64 11.08-9.84 11.08z"/>
<path id="path6849" style="stroke:#fff;stroke-width:1.7366" d="m388.87 517.16h3.8v-22.52l14.72 22.52h4.04v-28.64h-3.8v22.44l-14.72-22.44h-4.04v28.64z"/>
</g>
<g id="g6062"></g>
<g id="g6509"></g>
<g id="g6536"></g>
</g>
</svg>
