<?xml version="1.0" encoding="UTF-8" standalone="no"?>
<svg id="svg7934" xmlns:rdf="http://www.w3.org/1999/02/22-rdf-syntax-ns#" xmlns="http://www.w3.org/2000/svg" height="101.6mm" width="228.04mm" version="1.1" xmlns:cc="http://creativecommons.org/ns#" xmlns:dc="http://purl.org/dc/elements/1.1/" viewBox="0 0 807.99999 359.99999">
<g id="layer1" transform="translate(36.143 -15.219)">
<g id="flowRoot8511" style="fill:#256ead" transform="matrix(1.0736 0 0 1 -71.608 7.6432)">
<path id="path8604" style="fill:#256ead" d="m365.63 213.36 5.5591-31.992 9.1846 0.022q4.2847 0.0879 7.0972 2.2412 2.8125 2.1314 4.043 5.581 1.2305 3.4277 0.76904 7.4487l-0.17578 1.4282q-0.59326 4.3286-2.8125 7.8003-2.2192 3.4497-5.7568 5.4712-3.5156 2.0215-7.998 1.9995h-9.9097zm14.612-26.631-3.5156-0.022-3.7134 21.335 2.6807 0.022q4.4604 0.022 6.8555-2.9224 2.395-2.9663 2.9883-7.0532l0.19776-1.4941q0.28564-2.2412 0.0439-4.4824-0.2417-2.2412-1.5161-3.7573-1.2524-1.5381-4.021-1.626z"/>
<path id="path8606" style="fill:#256ead" d="m406.39 181.37-5.5371 31.992h-6.438l5.5371-31.992h6.438z"/>
<path id="path8608" style="fill:#256ead" d="m424.34 204.81q0.3955-2.2852-1.3403-3.252-1.7139-0.98877-3.4936-1.648-2.2412-0.85694-4.3726-2.0874-2.1314-1.2524-3.4717-3.1201-1.3184-1.8896-1.1646-4.6582 0.17578-3.1641 2.1314-5.2075 1.9556-2.0435 4.7681-3.0103 2.8345-0.96679 5.647-0.90088 4.4604 0.0879 7.4048 2.7026 2.9443 2.5928 2.8784 7.1851h-6.416q0.19775-4.5264-4.2407-4.6143-1.8896-0.0439-3.6694 0.87891-1.7578 0.92285-2.1094 2.9883-0.24169 1.3403 0.61524 2.2192 0.85693 0.85693 2.1094 1.3843 1.2744 0.50538 2.2412 0.85694 2.417 0.8789 4.5044 2.1753 2.1094 1.2744 3.3398 3.23 1.2524 1.9556 1.0547 4.812-0.21973 3.23-2.0874 5.2515-1.8457 2.0215-4.5923 2.9443-2.7466 0.92286-5.647 0.87891-4.79-0.0879-8.1079-2.8125t-3.208-7.7564l6.438 0.022q-0.28564 5.2295 5.1416 5.2954 1.8677 0.022 3.5596-0.83497 1.7139-0.8789 2.0874-2.9224z"/>
<path id="path8610" style="fill:#256ead" d="m436.27 186.71 0.94482-5.3394h25.291l-0.94483 5.3394h-9.4702l-4.6143 26.653h-6.438l4.6143-26.653h-9.3823z"/>
<path id="path8612" style="fill:#256ead" d="m478.04 213.36-3.7573-11.733h-5.2295l-2.0435 11.733h-6.46l5.5591-31.992 11.162 0.022q4.4165 0.0879 7.4707 2.373 3.0542 2.2852 2.7026 7.0972-0.2417 3.4058-2.0654 5.669-1.8237 2.2412-4.9438 3.4717l4.4824 13.008v0.35156h-6.8774zm-6.394-26.653-1.6699 9.602 4.7681 0.0439q2.373-0.022 4.1089-1.2744 1.7358-1.2744 2.0874-3.7134 0.65918-4.4604-3.8013-4.6362l-5.4932-0.022z"/>
<path id="path8614" style="fill:#256ead" d="m500.79 181.37-5.5371 31.992h-6.438l5.5371-31.992h6.438z"/>
<path id="path8616" style="fill:#256ead" d="m525.83 203.78q-0.32959 5.1196-3.999 7.3828-3.6694 2.2412-8.3716 2.1973h-12.305l5.5591-31.992 10.503 0.022q2.7246 0.0439 5.1856 0.85693 2.4609 0.81299 3.9331 2.6587t1.2524 5.0098q-0.17578 2.6807-1.7139 4.3945-1.5381 1.7139-3.8892 2.7246 2.1314 0.76904 3.0542 2.6807 0.94482 1.9116 0.79101 4.065zm-13.579-17.073-1.4062 8.042 4.1089 0.022q2.1094 0 3.9111-0.90088 1.8018-0.92285 2.1753-3.252 0.32959-2.1753-0.83497-3.0102-1.1426-0.83496-3.1201-0.87891l-4.834-0.022zm7.229 16.985q0.6372-4.0869-3.3618-4.2627l-6.0644-0.022-1.5161 8.6352 5.0757 0.022q2.1094-0.022 3.8013-1.0767 1.7139-1.0547 2.0654-3.2959z"/>
<path id="path8618" style="fill:#256ead" d="m551.65 181.37h6.46l-3.6035 21.072q-0.7251 5.3394-4.4165 8.4155-3.6694 3.0542-9.0308 2.9663-5.0537-0.0659-8.02-3.1421-2.9443-3.0762-2.373-8.2178l3.5815-21.094h6.46l-3.5815 21.116q-0.32959 2.4609 0.57129 4.1968 0.92285 1.7139 3.6475 1.8018 2.8784 0.10987 4.5703-1.582 1.6919-1.7139 2.1314-4.4385l3.6035-21.094z"/>
<path id="path8620" style="fill:#256ead" d="m560.46 186.71 0.94482-5.3394h25.291l-0.94482 5.3394h-9.4702l-4.6142 26.653h-6.438l4.6142-26.653h-9.3823z"/>
<path id="path8622" style="fill:#256ead" d="m612.21 196.66-0.19776 1.4062q-0.54931 4.1089-2.5049 7.7344t-5.2295 5.8667q-3.2739 2.2192-7.7783 2.1314-4.3506-0.0879-6.9214-2.395-2.5708-2.3291-3.5376-5.8887-0.96679-3.5816-0.50537-7.4268l0.17578-1.4282q0.57129-4.0869 2.5269-7.7124t5.2295-5.8667 7.7783-2.1533q4.3726 0.0879 6.9214 2.417 2.5708 2.3071 3.5156 5.8887 0.9668 3.5815 0.52735 7.4268zm-6.7456 1.4282 0.19775-1.4941q0.2417-1.9775 0.15381-4.3286-0.0879-2.3511-1.1646-4.0649-1.0547-1.7358-3.6914-1.8457-2.8564-0.10986-4.6582 1.4941t-2.7686 4.043q-0.9668 2.417-1.2964 4.79l-0.17578 1.4502q-0.2417 1.9556-0.15381 4.3286 0.10986 2.3511 1.1865 4.0869 1.0767 1.7358 3.7134 1.8457 2.8125 0.10987 4.6143-1.4941 1.8018-1.626 2.7466-4.043 0.9668-2.417 1.2964-4.7681z"/>
<path id="path8624" style="fill:#256ead" d="m631.41 213.36-3.7573-11.733h-5.2295l-2.0435 11.733h-6.46l5.5591-31.992 11.162 0.022q4.4165 0.0879 7.4707 2.373 3.0542 2.2852 2.7026 7.0972-0.24169 3.4058-2.0654 5.669-1.8237 2.2412-4.9438 3.4717l4.4824 13.008v0.35156h-6.8774zm-6.394-26.653-1.6699 9.602 4.7681 0.0439q2.373-0.022 4.1089-1.2744 1.7358-1.2744 2.0874-3.7134 0.65918-4.4604-3.8013-4.6362l-5.4932-0.022z"/>
<path id="path8626" style="fill:#256ead" d="m659.36 204.81q0.3955-2.2852-1.3403-3.252-1.7139-0.98877-3.4936-1.648-2.2412-0.85694-4.3726-2.0874-2.1313-1.2524-3.4717-3.1201-1.3184-1.8896-1.1646-4.6582 0.17578-3.1641 2.1314-5.2075 1.9556-2.0435 4.7681-3.0103 2.8345-0.96679 5.647-0.90088 4.4604 0.0879 7.4048 2.7026 2.9443 2.5928 2.8784 7.1851h-6.416q0.19775-4.5264-4.2407-4.6143-1.8896-0.0439-3.6694 0.87891-1.7578 0.92285-2.1094 2.9883-0.2417 1.3403 0.61523 2.2192 0.85693 0.85693 2.1094 1.3843 1.2744 0.50538 2.2412 0.85694 2.417 0.8789 4.5044 2.1753 2.1094 1.2744 3.3398 3.23 1.2524 1.9556 1.0547 4.812-0.21972 3.23-2.0874 5.2515-1.8457 2.0215-4.5923 2.9443-2.7466 0.92286-5.647 0.87891-4.79-0.0879-8.1079-2.8125t-3.208-7.7564l6.438 0.022q-0.28564 5.2295 5.1416 5.2954 1.8677 0.022 3.5596-0.83497 1.7139-0.8789 2.0874-2.9224z"/>
<path id="path8628" style="fill:#256ead" d="m674.98 207.95-0.68115 4.3066q-0.43945 2.7026-1.9116 5.0537-1.4502 2.373-3.5815 4.0869l-3.252-1.7578q1.0327-1.7358 2.0215-3.3838 0.98877-1.626 1.3623-3.6694l0.81299-4.6362h5.2295z"/>
<path id="path8630" style="fill:#256ead" d="m702.76 181.37-5.5371 31.992h-6.438l5.5371-31.992h6.438z"/>
<path id="path8632" style="fill:#256ead" d="m733.98 181.37-5.5371 31.992h-6.2402l-8.8989-21.357-3.7134 21.357h-6.46l5.5591-31.992h6.2402l8.8989 21.379 3.7134-21.379h6.438z"/>
<path id="path8634" style="fill:#256ead" d="m753.65 202.72 6.394-0.044q-0.63721 5.2954-4.6143 8.2617-3.9551 2.9663-9.1186 2.8564-4.3286-0.0879-6.8335-2.3291-2.4829-2.2632-3.3838-5.7568-0.8789-3.4936-0.39551-7.2949l0.26368-2.0874q0.57129-4.021 2.4609-7.5806 1.9116-3.5596 5.0977-5.7349 3.186-2.1973 7.6245-2.1094 5.2295 0.0879 7.998 3.208 2.7905 3.1201 3.0762 8.1518l-6.416-0.022q0-2.6587-1.0547-4.2407-1.0547-1.604-3.9111-1.7139-2.8125-0.0879-4.5264 1.4502-1.7139 1.5161-2.5928 3.8672-0.85693 2.3291-1.1865 4.6802l-0.28564 2.1533q-0.2417 1.9336-0.2417 4.2407 0 2.2852 0.96679 3.977 0.9668 1.6699 3.6255 1.7578 2.9224 0.10986 4.7022-1.3843 1.7798-1.5161 2.3511-4.3066z"/>
<path id="path8636" style="fill:#256ead" d="m763.05 210.33q-0.0659-1.5161 0.92285-2.5049 1.0107-1.0107 2.5269-1.0327 1.4502-0.022 2.4609 0.90088 1.0327 0.92285 1.0547 2.417 0.0439 1.4941-0.94482 2.5049-0.98877 0.98877-2.4829 1.0108-1.4722 0.0439-2.4829-0.87891-1.0107-0.94482-1.0547-2.417z"/>
</g>
<g id="text8531" style="fill:#256ead" transform="scale(1.0533 .94937)">
<path id="path8639" style="fill:#256ead" d="m342.42 156.71-5.8324 33.698h-6.573l-9.3735-22.496-3.9114 22.496h-6.8045l5.8556-33.698h6.573l9.3735 22.52 3.9114-22.52h6.7813z"/>
<path id="path8641" style="fill:#256ead" d="m342.42 190.41 5.8556-33.698h21.918l-0.99521 5.6241h-15.09l-1.4118 8.0311h12.938l-0.97207 5.439h-12.891l-1.5738 9.0032h15.183l-0.97207 5.601h-21.987z"/>
<path id="path8643" style="fill:#256ead" d="m368.25 190.41 5.8556-33.698h21.362l-0.99521 5.6241h-14.535l-1.5275 8.7023h12.938l-0.97207 5.601h-12.915l-2.407 13.771h-6.8045z"/>
<path id="path8645" style="fill:#256ead" d="m393.43 190.41 5.8556-33.698h21.362l-0.99521 5.6241h-14.535l-1.5275 8.7023h12.938l-0.97207 5.601h-12.915l-2.407 13.771h-6.8045z"/>
<path id="path8647" style="fill:#256ead" d="m459.26 172.7-2.1062 13.47q-2.2219 2.7542-6.0176 3.7494-3.7726 0.99521-7.0822 0.92578-4.6289-0.0463-7.4062-2.3839t-3.842-6.0176q-1.0646-3.7031-0.55547-7.8691l0.27774-2.0136q0.60176-4.328 2.5922-8.0774 1.9904-3.7726 5.3695-6.0639t8.1469-2.1987q5.4158 0.0926 8.332 3.0551 2.9162 2.9394 3.3097 8.1932l-6.5268-0.0232q-0.2083-2.4996-1.3655-4.004-1.1572-1.5275-3.842-1.6201-2.9856-0.11572-4.8604 1.5275-1.8747 1.6433-2.8931 4.166-0.99521 2.5228-1.3655 4.9992l-0.27774 2.083q-0.30087 2.245-0.11572 4.6983 0.18516 2.4302 1.435 4.166 1.2498 1.7127 4.1429 1.7821 1.597 0.0463 3.0551-0.32402 1.4812-0.39346 2.8005-1.3192l1.1341-5.8093h-6.1333l0.90264-5.0918h12.891z"/>
<path id="path8649" style="fill:#256ead" d="m479.99 190.41-3.9577-12.359h-5.5084l-2.1524 12.359h-6.8045l5.8556-33.698 11.757 0.0231q4.652 0.0926 7.8691 2.4996t2.8468 7.4757q-0.25459 3.5874-2.1756 5.9713-1.921 2.3607-5.2075 3.6568l4.7215 13.702v0.37031h-7.2442zm-6.735-28.074-1.759 10.114 5.0224 0.0463q2.4996-0.0231 4.328-1.3424 1.8284-1.3424 2.1987-3.9114 0.69434-4.6983-4.004-4.8835l-5.7861-0.0231z"/>
<path id="path8651" style="fill:#256ead" d="m520.87 172.82-0.2083 1.4812q-0.57861 4.328-2.6385 8.1469-2.0599 3.8188-5.5084 6.1796-3.4485 2.3376-8.1932 2.245-4.5826-0.0926-7.2905-2.5228-2.7079-2.4533-3.7263-6.2027-1.0184-3.7726-0.53233-7.8228l0.18516-1.5044q0.60176-4.3049 2.6616-8.1237 2.0599-3.8188 5.5084-6.1796 3.4485-2.3607 8.1932-2.2682 4.6058 0.0926 7.2905 2.5459 2.7079 2.4302 3.7031 6.2027 1.0184 3.7726 0.55547 7.8228zm-7.1054 1.5044 0.2083-1.5738q0.25459-2.083 0.16201-4.5595-0.0926-2.4765-1.2266-4.2817-1.1109-1.8284-3.8883-1.9441-3.0088-0.11572-4.9066 1.5738-1.8978 1.6896-2.9162 4.2586-1.0184 2.5459-1.3655 5.0455l-0.18516 1.5275q-0.25459 2.0599-0.16201 4.5595 0.11572 2.4765 1.2498 4.3049t3.9114 1.9441q2.9625 0.11572 4.8603-1.5738 1.8978-1.7127 2.8931-4.2586 1.0184-2.5459 1.3655-5.0224z"/>
<path id="path8653" style="fill:#256ead" d="m546.51 156.71h6.8045l-3.7957 22.196q-0.76377 5.6241-4.652 8.8643-3.8651 3.2171-9.5124 3.1245-5.3232-0.0694-8.4478-3.3097-3.1014-3.2402-2.4996-8.656l3.7726-22.219h6.8045l-3.7726 22.242q-0.34717 2.5922 0.60176 4.4206 0.97207 1.8053 3.842 1.8978 3.0319 0.11573 4.8141-1.6664 1.7821-1.8053 2.245-4.6752l3.7957-22.219z"/>
<path id="path8655" style="fill:#256ead" d="m568.24 178.53-6.411-0.0231-2.083 11.896h-6.8045l5.8556-33.698 12.359 0.0231q4.8372 0.11572 8.008 3.0088 3.1708 2.8699 2.7773 7.9154-0.43975 5.5547-4.5132 8.2163-4.0503 2.6616-9.1884 2.6616zm-3.6105-16.201-1.8516 10.577 5.6241 0.0463q2.5459-0.0231 4.4206-1.3192 1.8978-1.2961 2.2682-3.9346 0.32402-2.245-0.71748-3.7263-1.0184-1.5044-3.356-1.6201l-6.3879-0.0231z"/>
</g>
<path id="path8541" style="fill:#256ead;fill-rule:evenodd" d="m-17.96 139.35v-115.16l148.49 115.16z"/>
<rect id="rect8543" style="fill:#256ead" height="92.934" width="151.52" y="46.415" x="131.54"/>
<path id="path8541-9" style="fill:#256ead;fill-rule:evenodd" d="m283.65 241.19v115.16l-148.5-115.16z"/>
<rect id="rect8543-2" style="fill:#256ead" transform="scale(-1)" height="92.934" width="151.52" y="-334.12" x="-134.14"/>
<path id="path8569" style="fill:#256ead;fill-rule:evenodd" d="m-18.643 228.79 20.179-76.964 24.107-0.17858 15 37.143 10.357-37.143h25l-20.714 77.5-24.286 0.17858-14.643-36.25-10 36.071z"/>
<path id="path8571" style="fill:#256ead;fill-rule:evenodd" d="m87.071 151.65-19.286 76.786h65.357l4.6429-20-39.643 0.35714 3.9286-12.143h35.357l3.9286-16.964-35-0.17858 2.5-9.2857 37.5 0.35715 5-19.286z"/>
<path id="path8571-4" style="fill:#256ead;fill-rule:evenodd" d="m161.18 152.36-19.286 76.786h25.582l8.7033-31.786 27.907 0.37881 4.3074-17.217-27.929-0.30485 2.5-9.2857 32.954 0.23088 5.6314-19.159z"/>
<path id="path8571-4-4" style="fill:#256ead;fill-rule:evenodd" d="m230.18 152.4-19.286 76.786h25.582l8.7033-31.786 27.907 0.37881 4.3074-17.217-27.929-0.30485 2.5-9.2857 32.954 0.23088 5.6314-19.159z"/>
</g>
</svg>
